<?xml version="1.0" encoding="utf-8"?>
<!-- Generator: Adobe Illustrator 27.5.0, SVG Export Plug-In . SVG Version: 6.00 Build 0)  -->
<svg version="1.1" xmlns="http://www.w3.org/2000/svg" xmlns:xlink="http://www.w3.org/1999/xlink" x="0px" y="0px"
	 viewBox="0 0 750 500" style="enable-background:new 0 0 750 500;" xml:space="preserve">
<g id="BACKGROUND">
	<g>
		<g>
			<rect style="fill:#FFFFFF;" width="750" height="500"/>
		</g>
		<path style="fill:#DFF1F4;" d="M587.296,223.317c-3.309-2.125-5.293-5.763-5.291-9.695c0-0.021,0-0.043,0-0.064
			c0-87.566-92.68-158.552-207.006-158.552s-207.006,70.986-207.006,158.552c0,2.144,0.072,4.276,0.182,6.399
			c-37.712,22.122-62.039,56.958-62.039,96.152c0,66.852,70.756,121.047,158.039,121.047c22.67,0,44.223-3.658,63.711-10.243
			c30.525-10.315,63.7-10.315,94.225,0c19.488,6.586,41.041,10.243,63.711,10.243c87.282,0,158.039-54.195,158.039-121.047
			C643.862,278.845,621.872,245.521,587.296,223.317z"/>
	</g>
</g>
<g id="OBJECTS">
	<g>
		<g>
			<path style="fill:#165A7F;" d="M121.979,385.836L121.979,385.836L121.979,385.836c4.765,35.434,37.352,60.295,72.786,55.53v0
				C189.999,405.932,157.412,381.071,121.979,385.836z"/>
			<path style="fill:#1C77B5;" d="M161.009,356.933L161.009,356.933L161.009,356.933c-14.412,32.719,0.428,70.926,33.147,85.338v0
				C208.568,409.552,193.728,371.345,161.009,356.933z"/>
		</g>
		<g>
			<path style="fill:none;stroke:#1B7BBC;stroke-miterlimit:10;" d="M599.823,433.161c0,0,22.02-12.633,14.323-43.427"/>
			<path style="fill:#EDCB3A;" d="M616.931,386.909c0.683,1.86-0.271,3.922-2.131,4.604c-1.86,0.683-3.922-0.272-4.604-2.132
				c-0.683-1.86,0.271-3.922,2.132-4.604C614.187,384.094,616.249,385.049,616.931,386.909z"/>
		</g>
		<g>
			<path style="fill:none;stroke:#1B7BBC;stroke-miterlimit:10;" d="M601.661,431.768c0,0,25.342-1.498,32.174-32.495"/>
			<path style="fill:#EDCB3A;" d="M637.586,397.984c-0.217,1.97-1.99,3.39-3.96,3.172s-3.39-1.99-3.172-3.96
				c0.217-1.969,1.99-3.39,3.96-3.172C636.384,394.242,637.804,396.015,637.586,397.984z"/>
		</g>
		<path style="fill:#83A9FF;" d="M325.527,430.966c-2.473,0-4.775,0.707-6.739,1.911c-4.284-11.049-14.816-18.977-27.264-19.447
			c-9.289-12.431-24.121-20.479-40.834-20.479c-14.584,0-27.727,6.139-37.014,15.961c-1.69-0.248-3.418-0.381-5.177-0.381
			c-13.228,0-24.752,7.268-30.816,18.023c-1.327-0.315-2.711-0.487-4.135-0.487c-9.845,0-17.826,7.981-17.826,17.826h182.731
			C338.454,436.753,332.666,430.966,325.527,430.966z"/>
		<g>
			<path style="fill:none;stroke:#FFB692;stroke-width:9;stroke-miterlimit:10;" d="M539.264,223.142
				c-3.027,27.955-15.623,39.716-36.658,11.169"/>
			<g>
				<path style="fill:#FFB692;" d="M506.513,239.064c6.633-2.438,1.409-11.289,1.409-11.289l0.958-7.114
					c0,0-6.373-0.578-5.829,5.812c0,0-5.935-6.838-9.858-6.966c-1.842-0.06-7.218,4.666-8.612,8.247
					c-0.296,0.759,0.09,1.605,0.857,1.881c1.841,0.662,5.374,2.343,7.292,5.934C495.402,240.575,501.656,245.716,506.513,239.064z"
					/>
				<path style="fill:#D88D87;" d="M503.051,226.474c0,0-4.185,3.184-1.816,8.83c0,0-1.216-5.331,2.081-8.518L503.051,226.474z"/>
				<path style="fill:#D88D87;" d="M495.62,233.87c0,0,1.602-3.95,4.975-6.562C500.595,227.308,496.003,227.622,495.62,233.87z"/>
				<g>
					<path style="fill:#D88D87;" d="M496.271,232.391l0.097-0.334c0,0-5.44-4.761-11.433-5.076c-0.056,0.107-0.108,0.214-0.157,0.32
						C487.024,227.658,492.308,228.835,496.271,232.391z"/>
					<path style="fill:#D88D87;" d="M498.826,228.319l0.482-0.287c0,0-3.777-6.167-9.182-6.962
						c-1.073,0.829-2.222,1.915-3.218,3.077c1.73,0.321,6.793,1.606,10.292,6.065l0.31-0.3c0,0-3.779-6.217-9.963-6.287l2.138-2.19
						C489.685,221.436,495.437,222.484,498.826,228.319z"/>
				</g>
			</g>
			<path style="fill:#1B7BBC;" d="M550.673,234.311l3.003-17.494c0.602-4.95-2.932-9.449-7.894-10.05l0,0
				c-4.962-0.601-9.472,2.925-10.074,7.874l-3.003,17.494L550.673,234.311z"/>
		</g>
		<g>
			<g>
				<path style="fill:#C0D4FF;" d="M498.893,101.126V412.21c0,16.871-13.676,30.547-30.547,30.547H281.653
					c-16.87,0-30.547-13.676-30.547-30.547V101.126c0-16.87,13.676-30.547,30.547-30.547h186.693
					C485.217,70.579,498.893,84.256,498.893,101.126z"/>
				<path style="fill:#19283B;" d="M470,439.41H280c-14.109,0-25.547-11.438-25.547-25.547V99.474
					c0-14.109,11.438-25.547,25.547-25.547H470c14.109,0,25.547,11.438,25.547,25.547v314.39
					C495.547,427.973,484.109,439.41,470,439.41z"/>
				<g>
					<path style="fill:#FFFFFF;" d="M484.058,419.179V94.158c0-5.936-4.812-10.748-10.748-10.748H277.533
						c-5.936,0-10.747,4.812-10.747,10.747v325.022c0,5.935,4.812,10.747,10.747,10.747H473.31
						C479.246,429.926,484.058,425.115,484.058,419.179z"/>
				</g>
			</g>
			<g>
				<g>
					<path style="fill:#EDCB3A;" d="M372.11,352.576h-66.742c-6.053,0-10.96-4.907-10.96-10.96V255.09
						c0-6.053,4.907-10.96,10.96-10.96h66.742c6.053,0,10.96,4.907,10.96,10.96v86.526
						C383.07,347.669,378.163,352.576,372.11,352.576z"/>
					<rect x="303.48" y="256.988" style="fill:#FFFFFF;" width="70.519" height="1.714"/>
					<rect x="303.48" y="264.931" style="fill:#FFFFFF;" width="70.519" height="1.714"/>
					<rect x="303.48" y="272.874" style="fill:#FFFFFF;" width="70.519" height="1.714"/>
					<rect x="303.48" y="280.818" style="fill:#FFFFFF;" width="70.519" height="1.714"/>
					<rect x="303.48" y="288.761" style="fill:#FFFFFF;" width="70.519" height="1.714"/>
					<rect x="303.48" y="296.704" style="fill:#FFFFFF;" width="70.519" height="1.714"/>
					<rect x="303.48" y="304.648" style="fill:#FFFFFF;" width="70.519" height="1.714"/>
					<rect x="303.48" y="312.591" style="fill:#FFFFFF;" width="70.519" height="1.714"/>
					<rect x="303.48" y="320.535" style="fill:#FFFFFF;" width="70.519" height="1.714"/>
					<rect x="303.48" y="328.478" style="fill:#FFFFFF;" width="70.519" height="1.714"/>
					<rect x="303.48" y="336.421" style="fill:#FFFFFF;" width="35.26" height="1.714"/>
				</g>
				<g>
					<path style="fill:#0E5EA0;" d="M314.658,265.648h-33.015c-3.689,0-6.68-2.991-6.68-6.68v-36.372c0-3.689,2.991-6.68,6.68-6.68
						h33.015c3.689,0,6.68,2.991,6.68,6.68v36.372C321.339,262.657,318.348,265.648,314.658,265.648z"/>
					<g>
						
							<ellipse transform="matrix(0.2312 -0.9729 0.9729 0.2312 -5.0441 475.1792)" style="fill:none;stroke:#FFFFFF;stroke-miterlimit:10;" cx="298.151" cy="240.781" rx="14.835" ry="14.835"/>
						<path style="fill:none;stroke:#FFFFFF;stroke-miterlimit:10;" d="M298.151,240.781l-0.876,14.809
							c-7.794-0.461-13.959-7.001-13.959-14.809c0-8.138,6.697-14.835,14.835-14.835c8.138,0,14.835,6.697,14.835,14.835H298.151z"
							/>
						<path style="fill:none;stroke:#FFFFFF;stroke-miterlimit:10;" d="M298.151,240.781l3.003-14.527
							c3.342,0.691,6.345,2.514,8.5,5.16c2.155,2.646,3.332,5.956,3.332,9.368H298.151z"/>
					</g>
				</g>
			</g>
			<g>
				<rect x="395.403" y="333.146" style="fill:#1B7BBC;" width="21.778" height="18.603"/>
				<rect x="423.847" y="308.5" style="fill:#EDCB3A;" width="21.778" height="43.249"/>
				<rect x="452.292" y="283.745" style="fill:#B7D82B;" width="21.778" height="68.004"/>
			</g>
			<rect x="275.296" y="364.392" style="fill:#83A9FF;" width="199.407" height="50.724"/>
			<rect x="395.403" y="227.308" style="fill:#1B7BBC;" width="79.301" height="11.882"/>
			<rect x="435.053" y="207.359" style="fill:#1B7BBC;" width="39.65" height="11.882"/>
			<rect x="395.403" y="247.115" style="fill:#1B7BBC;" width="79.301" height="11.882"/>
			<g>
				<g>
					
						<ellipse transform="matrix(0.2298 -0.9732 0.9732 0.2298 137.6594 484.6175)" style="fill:#EDCB3A;" cx="375" cy="155.339" rx="48.763" ry="48.763"/>
					<path style="fill:#0E5EA0;" d="M375,155.339h48.763c0,26.75-22.012,48.763-48.763,48.763c-18.328,0-35.17-10.333-43.472-26.673
						L375,155.339z"/>
					<path style="fill:#E71C2E;" d="M375,155.339l-6.953-48.264c2.303-0.332,4.626-0.498,6.953-0.498
						c26.75,0,48.763,22.012,48.763,48.763H375z"/>
					<path style="fill:#B7D82B;" d="M375,155.339h48.763c0,9.2-2.604,18.215-7.509,25.998c-4.905,7.783-11.914,14.022-20.214,17.992
						L375,155.339z"/>
					
						<ellipse transform="matrix(0.2298 -0.9732 0.9732 0.2298 137.6593 484.6174)" style="fill:#FFFFFF;" cx="375" cy="155.339" rx="37.261" ry="37.261"/>
				</g>
				<g>
					<g>
						<g>
							<polyline style="fill:none;stroke:#83A9FF;stroke-miterlimit:10;" points="411.239,130.957 426.795,130.957 439.87,117.882 
								461.017,117.882 							"/>
							<rect x="438.202" y="109.4" style="fill:#83A9FF;" width="22.815" height="3.556"/>
						</g>
						<g>
							<polyline style="fill:none;stroke:#83A9FF;stroke-miterlimit:10;" points="411.239,181.886 426.795,181.886 439.87,168.811 
								461.017,168.811 							"/>
							<rect x="438.202" y="160.329" style="fill:#83A9FF;" width="22.815" height="3.556"/>
						</g>
					</g>
					<g>
						<g>
							<polyline style="fill:none;stroke:#83A9FF;stroke-miterlimit:10;" points="338.761,130.957 323.205,130.957 310.13,117.882 
								288.983,117.882 							"/>
							
								<rect x="288.983" y="109.4" transform="matrix(-1 -1.224647e-16 1.224647e-16 -1 600.781 222.3556)" style="fill:#83A9FF;" width="22.815" height="3.556"/>
						</g>
						<g>
							<polyline style="fill:none;stroke:#83A9FF;stroke-miterlimit:10;" points="338.761,181.886 323.205,181.886 310.13,168.811 
								288.983,168.811 							"/>
							
								<rect x="288.983" y="160.329" transform="matrix(-1 -1.224647e-16 1.224647e-16 -1 600.781 324.2138)" style="fill:#83A9FF;" width="22.815" height="3.556"/>
						</g>
					</g>
				</g>
			</g>
			<g>
				<rect x="280.884" y="389.755" style="fill:#ABC9FF;" width="10.35" height="19.104"/>
				<rect x="297.055" y="401.474" style="fill:#ABC9FF;" width="10.349" height="7.385"/>
				<rect x="313.226" y="395.918" style="fill:#ABC9FF;" width="10.349" height="12.941"/>
				<rect x="329.397" y="379.696" style="fill:#ABC9FF;" width="10.349" height="29.163"/>
				<rect x="345.569" y="387.474" style="fill:#ABC9FF;" width="10.349" height="21.385"/>
				<rect x="361.74" y="377.918" style="fill:#ABC9FF;" width="10.349" height="30.941"/>
				<rect x="377.911" y="369.918" style="fill:#ABC9FF;" width="10.349" height="38.94"/>
				<rect x="394.082" y="399.029" style="fill:#ABC9FF;" width="10.35" height="9.829"/>
				<rect x="410.253" y="377.918" style="fill:#ABC9FF;" width="10.349" height="30.941"/>
				<rect x="426.424" y="384.807" style="fill:#ABC9FF;" width="10.35" height="24.052"/>
				<rect x="442.595" y="395.918" style="fill:#ABC9FF;" width="10.349" height="12.941"/>
				<rect x="458.766" y="369.918" style="fill:#ABC9FF;" width="10.35" height="38.94"/>
			</g>
		</g>
		<path style="fill:#83A9FF;" d="M617.703,430.966c-2.473,0-4.775,0.707-6.739,1.911c-4.284-11.049-14.816-18.977-27.264-19.447
			c-9.289-12.431-24.121-20.479-40.834-20.479c-14.584,0-27.727,6.139-37.014,15.961c-1.69-0.248-3.418-0.381-5.177-0.381
			c-13.228,0-24.751,7.268-30.816,18.023c-1.328-0.315-2.711-0.487-4.134-0.487c-9.845,0-17.826,7.981-17.826,17.826H630.63
			C630.63,436.753,624.842,430.966,617.703,430.966z"/>
		<rect x="59.639" y="442.695" style="fill:#3E5C70;" width="630.722" height="3.161"/>
		<g>
			<g>
				<g>
					
						<line style="fill:none;stroke:#284159;stroke-width:13;stroke-miterlimit:10;" x1="552.622" y1="290.231" x2="552.622" y2="442.757"/>
					<g>
						<path style="fill:#FF8B0D;" d="M543.274,419.082l0.087,9.867c0,0-12.321,0.175-15.373,13.994l33.867-0.03l-0.541-23.99
							L543.274,419.082z"/>
						<path style="fill:#19283B;" d="M552.254,429.488c-0.041,2.141,1.271,3.902,2.929,3.934c1.659,0.032,3.036-1.678,3.077-3.819
							c0.041-2.141-1.27-3.902-2.929-3.934C553.672,425.637,552.295,427.347,552.254,429.488z"/>
					</g>
				</g>
				<path style="fill:#284159;" d="M557.124,264.486h12.791c9.435,0,17.155,7.72,17.155,17.155v0c0,9.435-7.72,17.155-17.155,17.155
					h-12.791c-9.435,0-17.155-7.72-17.155-17.155v0C539.969,272.205,547.689,264.486,557.124,264.486z"/>
				<g>
					
						<line style="fill:none;stroke:#284159;stroke-width:13;stroke-miterlimit:10;" x1="573.567" y1="290.231" x2="573.567" y2="442.757"/>
					<g>
						<path style="fill:#ECB220;" d="M564.219,419.082l0.087,9.867c0,0-12.321,0.175-15.373,13.994l33.867-0.03l-0.541-23.99
							L564.219,419.082z"/>
						<path style="fill:#19283B;" d="M573.199,429.488c-0.041,2.141,1.271,3.902,2.929,3.934c1.659,0.032,3.036-1.678,3.077-3.819
							c0.041-2.141-1.27-3.902-2.929-3.934C574.617,425.637,573.24,427.347,573.199,429.488z"/>
					</g>
				</g>
			</g>
			<g>
				<path style="fill:#875330;" d="M593.96,228.117h-17.721c-10.986,0-19.893-8.906-19.893-19.893V180.66
					c0-6.941,5.627-12.567,12.568-12.567l0,0c13.833,0,25.047,11.214,25.047,25.047V228.117z"/>
				<path style="fill:#875330;" d="M560.423,189.259h2.046c13.327,0,24.131-10.804,24.131-24.131l0,0
					c0-13.327-10.804-24.131-24.131-24.131h-2.046c-13.327,0-24.131,10.804-24.131,24.131l0,0
					C536.292,178.455,547.096,189.259,560.423,189.259z"/>
				<g>
					<g>
						<path style="fill:#0E5EA0;" d="M536.559,275.096c4.734,2.311,13.462,5.813,24.93,6.159c11.75,0.355,20.859-2.771,25.737-4.846
							c-1.783-7.794-3.565-15.588-5.348-23.383l4.173-32.485c0.215-8.315-3.73-15.162-12.045-15.377l-16.202-0.42
							c-10.719-0.278-16.292,3.475-16.569,14.194l1.847,34.218L536.559,275.096z"/>
					</g>
					<path style="fill:none;stroke:#A83B5D;stroke-miterlimit:10;" d="M586.619,185.027"/>
					<path style="fill:#FFB692;" d="M575.143,207.417c0.28,4.224-5.217,8.028-12.278,8.495c-7.061,0.468-13.012-2.578-13.291-6.802
						c-0.28-4.224,5.217-8.028,12.278-8.496C568.912,200.147,574.863,203.192,575.143,207.417z"/>
				</g>
				<g>
					<path style="fill:#D88D87;" d="M568.194,151.956h-12.603c-0.303,0-0.548-0.246-0.548-0.549l0,0
						c0-0.303,0.246-0.549,0.548-0.549h12.603c0.303,0,0.549,0.245,0.549,0.549l0,0C568.743,151.71,568.497,151.956,568.194,151.956
						z"/>
					<path style="fill:#D88D87;" d="M581.541,180.891h-39.297c-1.875,0-3.394-1.52-3.394-3.394l0,0c0-1.875,1.52-3.394,3.394-3.394
						h39.297c1.875,0,3.394,1.52,3.394,3.394l0,0C584.935,179.372,583.416,180.891,581.541,180.891z"/>
					<path style="fill:#AA635F;" d="M540.627,177.497L540.627,177.497c0-0.893,0.724-1.617,1.617-1.617h39.297
						c0.893,0,1.617,0.724,1.617,1.617l0,0c0,0.893-0.724,1.617-1.617,1.617h-39.297
						C541.351,179.114,540.627,178.39,540.627,177.497z"/>
					<path style="fill:#FFB692;" d="M561.893,172.755L561.893,172.755c-5.808,0-10.516,4.708-10.516,10.516v28.466h21.032v-28.466
						C572.409,177.463,567.701,172.755,561.893,172.755z"/>
					<path style="fill:#D88D87;" d="M551.376,176.867v17.95c0,5.808,4.708,10.516,10.516,10.516l0,0
						c5.808,0,10.516-4.708,10.516-10.516v-17.95"/>
					<path style="fill:#FFB692;" d="M561.893,200.997L561.893,200.997c-4.347,0-17.171-5.15-17.171-15.615l-1.777-19.691
						c0-10.033,8.133-18.166,18.166-18.166h1.565c10.033,0,18.166,8.133,18.166,18.166l-1.777,19.691
						C579.064,195.847,568.076,200.997,561.893,200.997z"/>
					<g>
						<path style="fill:#34344F;" d="M557.146,187.09c1.863-0.445,4.454-1.196,6.863-2.349c1.585-0.758,3.173,1.206,2.45,3.06
							c-0.769,1.973-2.246,3.881-5.074,4.357c-2.317,0.39-3.855-0.107-4.875-0.896C555.068,190.146,555.485,187.488,557.146,187.09z
							"/>
						<path style="fill:#FF9292;" d="M561.385,192.159c2.827-0.476,4.305-2.385,5.074-4.357c0.108-0.278,0.159-0.557,0.171-0.831
							c-1.047-0.376-2.41-0.453-4.185,0.084c-2.742,0.83-3.952,2.907-4.449,4.958c-0.001,0.004-0.001,0.008-0.002,0.012
							C558.881,192.303,559.99,192.394,561.385,192.159z"/>
						<path style="fill:#FFABAB;" d="M559.84,189.942c0.318,0.458,1.389,0.295,2.391-0.365c1.002-0.66,1.557-1.566,1.238-2.025
							c-0.318-0.458-1.389-0.295-2.391,0.365C560.076,188.577,559.522,189.483,559.84,189.942z"/>
						<path style="fill:#FFFFFF;" d="M557.146,187.09c1.863-0.445,4.454-1.196,6.863-2.349c0.973-0.465,1.946,0.097,2.385,1.029
							c-1.356,1.418-3.5,2.648-6.063,3.325c-1.644,0.434-3.25,0.585-4.687,0.489C555.548,188.49,556.099,187.341,557.146,187.09z"/>
					</g>
					<g>
						<path style="fill:#D88D87;" d="M552.964,173.28h-4.187c-0.953,0-1.725,0.773-1.725,1.726c0,0.953,0.772,1.725,1.725,1.725
							h4.187c0.953,0,1.725-0.772,1.725-1.725C554.69,174.053,553.917,173.28,552.964,173.28z"/>
						<path style="fill:#D88D87;" d="M571.78,173.28h-4.187c-0.953,0-1.726,0.773-1.726,1.726c0,0.953,0.773,1.725,1.726,1.725
							h4.187c0.953,0,1.726-0.772,1.726-1.725C573.506,174.053,572.733,173.28,571.78,173.28z"/>
					</g>
					<g>
						<path style="fill:#442D1E;" d="M572.861,170.393l-3.844-1.211c-0.842-0.265-1.741,0.202-2.006,1.045
							c-0.265,0.842,0.202,1.741,1.045,2.006l3.844,1.211c0.842,0.265,1.741-0.202,2.006-1.045
							C574.172,171.556,573.704,170.658,572.861,170.393z"/>
						<path style="fill:#442D1E;" d="M552.49,169.182l-3.844,1.211c-0.842,0.265-1.31,1.163-1.045,2.006
							c0.265,0.842,1.163,1.31,2.006,1.045l3.844-1.211c0.842-0.265,1.31-1.163,1.045-2.006
							C554.23,169.384,553.332,168.917,552.49,169.182z"/>
					</g>
					<path style="fill:#D88D87;" d="M565.727,195.922c0.082,1.002-1.791,1.973-4.184,2.169c-2.393,0.196-4.399-0.456-4.482-1.458
						c-0.082-1.002,1.791-1.973,4.184-2.169C563.638,194.268,565.645,194.921,565.727,195.922z"/>
					<g>
						<path style="fill:#252538;" d="M550.858,173.938c-1.247,0-2.259,1.011-2.259,2.259c0,1.247,1.011,2.259,2.259,2.259
							c1.247,0,2.259-1.011,2.259-2.259C553.117,174.95,552.106,173.938,550.858,173.938z"/>
						<path style="fill:#252538;" d="M567.973,173.938c-1.247,0-2.259,1.011-2.259,2.259c0,1.247,1.011,2.259,2.259,2.259
							s2.259-1.011,2.259-2.259C570.231,174.95,569.22,173.938,567.973,173.938z"/>
						<polygon style="fill:#252538;" points="569.752,176.073 571.887,173.938 567.914,173.938 						"/>
						<polygon style="fill:#252538;" points="548.723,176.073 550.858,173.938 546.885,173.938 						"/>
					</g>
					<g>
						<g>
							<path style="fill:#D88D87;" d="M559.415,187.257L559.415,187.257c-1.346,0-2.438-1.092-2.438-2.438v-9.3
								c0-1.347,1.092-2.438,2.438-2.438l0,0c1.347,0,2.438,1.092,2.438,2.438v9.3C561.854,186.166,560.762,187.257,559.415,187.257
								z"/>
						</g>
						<path style="fill:#F79C97;" d="M560.621,185.614L560.621,185.614c-0.366,0-0.663-0.297-0.663-0.663v-9.565
							c0-0.366,0.297-0.663,0.663-0.663h0c0.366,0,0.663,0.297,0.663,0.663v9.565C561.283,185.318,560.987,185.614,560.621,185.614z
							"/>
					</g>
				</g>
				<path style="fill:#875330;" d="M554.396,141.756c1.926-0.495,3.946-0.759,6.027-0.759h2.046
					c13.327,0,24.131,10.804,24.131,24.131l0,0c0,0.403-0.011,0.803-0.03,1.2h-2.49
					C569.321,166.328,557.041,155.745,554.396,141.756z"/>
				<path style="fill:#875330;" d="M536.031,175.888h5.284c11.074,0,20.052-8.978,20.052-20.052v-5.449
					c0-6.996-5.672-12.668-12.668-12.668l0,0c-6.996,0-12.668,5.672-12.668,12.668V175.888z"/>
				<path style="fill:#A3653B;" d="M561.366,148.992v2.268c0,11.074-8.977,20.052-20.052,20.052h-5.284v-2.268h5.284
					C552.389,169.044,561.366,160.066,561.366,148.992z"/>
				<path style="fill:#A3653B;" d="M561.366,142.503v2.268c0,11.074-8.977,20.052-20.052,20.052h-5.284v-2.269h5.284
					C552.389,162.554,561.366,153.577,561.366,142.503z"/>
			</g>
		</g>
		<g>
			
				<rect x="491.357" y="160.36" transform="matrix(-1 -1.224647e-16 1.224647e-16 -1 1018.7201 370.3696)" style="fill:#5E8BEF;" width="36.006" height="49.649"/>
			<g>
				<polygon style="fill:#83A9FF;" points="500.064,140.945 507.258,148.122 507.258,190.594 471.253,190.594 471.253,140.945 				
					"/>
				<polygon style="fill:#5E8BEF;" points="507.258,148.122 500.021,148.122 500.064,140.945 				"/>
				<g>
					
						<rect x="475.492" y="153.501" transform="matrix(-1 -1.224647e-16 1.224647e-16 -1 978.5104 307.9538)" style="fill:#FFFFFF;" width="27.526" height="0.953"/>
					
						<rect x="475.492" y="156.93" transform="matrix(-1 -1.224647e-16 1.224647e-16 -1 978.5104 314.8136)" style="fill:#FFFFFF;" width="27.526" height="0.953"/>
					
						<rect x="475.492" y="160.36" transform="matrix(-1 -1.224647e-16 1.224647e-16 -1 978.5104 321.6733)" style="fill:#FFFFFF;" width="27.526" height="0.952"/>
					
						<rect x="475.492" y="163.79" transform="matrix(-1 -1.224647e-16 1.224647e-16 -1 978.5104 328.5331)" style="fill:#FFFFFF;" width="27.526" height="0.952"/>
					
						<rect x="475.492" y="167.22" transform="matrix(-1 -1.224647e-16 1.224647e-16 -1 978.5104 335.3929)" style="fill:#FFFFFF;" width="27.526" height="0.952"/>
					
						<rect x="475.492" y="170.65" transform="matrix(-1 -1.224647e-16 1.224647e-16 -1 978.5104 342.2527)" style="fill:#FFFFFF;" width="27.526" height="0.953"/>
					
						<rect x="475.492" y="174.08" transform="matrix(-1 -1.224647e-16 1.224647e-16 -1 964.9837 349.1125)" style="fill:#FFFFFF;" width="13.999" height="0.952"/>
				</g>
			</g>
		</g>
		<g>
			<path style="fill:#83A9FF;" d="M619.719,91.536c-0.25,0-0.493,0.028-0.741,0.037c-3.048-13.673-15.245-23.897-29.837-23.897
				c-14.592,0-26.789,10.224-29.837,23.897c-0.248-0.01-0.491-0.037-0.741-0.037c-10.299,0-18.648,8.349-18.648,18.648
				s8.349,18.648,18.648,18.648h61.155c10.299,0,18.648-8.349,18.648-18.648S630.018,91.536,619.719,91.536z"/>
			<polygon style="fill:#FFFFFF;" points="577.977,103.851 589.141,118.049 600.306,103.851 593.792,103.851 593.792,88.273 
				585.096,88.273 585.096,103.851 			"/>
		</g>
		<g>
			<g>
				<rect x="462.559" y="232.059" style="fill:#83A9FF;" width="104.203" height="64.854"/>
				<g>
					<line style="fill:none;stroke:#FFFFFF;stroke-miterlimit:10;" x1="469.643" y1="238.963" x2="469.643" y2="293.424"/>
					<line style="fill:none;stroke:#FFFFFF;stroke-miterlimit:10;" x1="465.953" y1="289.426" x2="561.653" y2="289.426"/>
				</g>
			</g>
			<path style="fill:none;stroke:#FFFFFF;stroke-miterlimit:10;" d="M475.779,283.745c18.667-40.222,31.778-13.778,40.222-5.333
				c8.444,8.444,15.487-24.889,27.299-28.889s19.144,18.222,19.144,18.222"/>
		</g>
		<g>
			<path style="fill:none;stroke:#FFB692;stroke-width:10;stroke-miterlimit:10;" d="M588.446,231.423
				c20.534,30.785-3.523,64.301-40.174,53.692"/>
			<path style="fill:#1B7BBC;" d="M581.496,240.781l-9.847-16.432c-2.538-4.745-0.747-10.65,3.998-13.187v0
				c4.745-2.537,10.649-0.748,13.187,3.998l9.847,16.432L581.496,240.781z"/>
			<g>
				<g>
					<path style="fill:#FFB692;" d="M554.652,285.832c4.445-5.633-4.778-10.517-4.778-10.517l-2.95-6.665
						c0,0-5.822,2.885-1.956,8.126c0,0-6.392-1.105-9.75-4.606c-4.1-4.273-7.023,9.384-4.334,14.762
						c1.46,2.921,6.177,1.754,9.746,3.843C545.6,293.686,553.983,294.168,554.652,285.832z"/>
				</g>
				<g>
					<path style="fill:#D88D87;" d="M541.803,283.579l-0.092,0.521c0,0-6.992-0.376-11.844-3.657
						c0.013-0.32,0.031-0.641,0.057-0.961C531.747,280.98,535.438,283.164,541.803,283.579z"/>
					<path style="fill:#D88D87;" d="M540.837,287.381c0,0-6.309-0.272-10.584-2.245c-0.076-0.313-0.138-0.641-0.192-0.976
						c1.805,0.879,5.59,2.377,10.889,2.665L540.837,287.381z"/>
					<path style="fill:#D88D87;" d="M542.718,280.077c0,0-7.141-0.165-11.943-5.073c0.137-0.428,0.287-0.83,0.449-1.201
						c1.82,1.973,5.452,4.923,11.537,5.912L542.718,280.077z"/>
				</g>
			</g>
		</g>
		<g>
			<rect x="241.139" y="101.178" style="fill:#EDCB3A;" width="51.293" height="14.079"/>
			<g>
				<path style="fill:none;stroke:#FFB692;stroke-width:9;stroke-miterlimit:10;" d="M234.738,141.147
					c7.507,40.783-10.474,66.818-47.4,72.009"/>
				<path style="fill:#1B7BBC;" d="M209.204,214.852l-15.659,7.065c-4.491,1.768-9.564-0.44-11.331-4.93v0
					c-1.768-4.491,0.439-9.564,4.93-11.331l15.659-7.065L209.204,214.852z"/>
				<g>
					<path style="fill:#FFB692;" d="M235.737,149.515c-6.632,2.441-8.387-7.686-8.387-7.686l-5.339-4.798
						c0,0,4.48-4.569,8.206,0.651c0,0,0.09-9.054,2.996-11.693c1.365-1.239,8.521-1.122,11.903,0.702
						c0.717,0.387,0.971,1.281,0.566,1.988c-0.973,1.698-2.576,5.266-1.71,9.245C245.178,143.467,243.745,151.435,235.737,149.515z"
						/>
					<path style="fill:#D88D87;" d="M230.216,137.682c0,0,5.251-0.286,7.104,5.55c0,0-2.528-4.848-7.104-5.14L230.216,137.682z"/>
					<path style="fill:#D88D87;" d="M240.669,138.501c0,0-3.779-1.971-8.041-1.776C232.627,136.725,236.328,133.99,240.669,138.501z
						"/>
					<g>
						<path style="fill:#D88D87;" d="M239.214,137.796l-0.29-0.191c0,0,1.058-7.151,5.42-11.274
							c0.112,0.046,0.221,0.093,0.327,0.142C243.191,128.2,239.929,132.52,239.214,137.796z"/>
						<path style="fill:#D88D87;" d="M234.63,136.349l-0.553,0.094c0,0-1.118-7.145,2.483-11.252
							c1.354-0.063,2.933,0.02,4.445,0.259c-1.111,1.365-4.134,5.624-3.91,11.288l-0.43-0.028c0,0-1.15-7.184,3.516-11.244
							l-3.048-0.282C237.133,125.184,233.431,129.709,234.63,136.349z"/>
					</g>
				</g>
			</g>
			<g>
				<g>
					<g>
						
							<line style="fill:none;stroke:#284159;stroke-width:13;stroke-miterlimit:10;" x1="202.794" y1="288.711" x2="202.794" y2="442.443"/>
						<g>
							<path style="fill:#FF8B0D;" d="M212.216,418.581l-0.087,9.945c0,0,12.419,0.176,15.494,14.105l-34.135-0.03l0.545-24.18
								L212.216,418.581z"/>
							<path style="fill:#19283B;" d="M203.165,429.069c0.041,2.158-1.281,3.933-2.952,3.965c-1.672,0.032-3.06-1.691-3.102-3.849
								c-0.041-2.158,1.28-3.933,2.952-3.965C201.736,425.188,203.124,426.912,203.165,429.069z"/>
						</g>
					</g>
					<path style="fill:#284159;" d="M198.257,262.762h-12.893c-9.51,0-17.29,7.78-17.29,17.29v0c0,9.51,7.781,17.29,17.29,17.29
						h12.893c9.51,0,17.29-7.781,17.29-17.29v0C215.547,270.543,207.766,262.762,198.257,262.762z"/>
					<g>
						<path style="fill:#0E5EA0;" d="M213.74,270.361c0.01,1.895-1.057,3.643-2.767,4.461c-3.785,1.809-9.281,3.789-16.104,4.268
							c-9.604,0.674-17.318-1.944-21.923-4.063c-1.735-0.798-2.838-2.542-2.848-4.452c-0.092-17.222-0.185-33.005-0.277-50.125
							c-0.053-9.888,7.92-17.949,17.808-18.002l9.021-0.048c9.233-0.049,16.758,7.396,16.807,16.63L213.74,270.361z"/>
					</g>
					<g>
						<path style="fill:#FFB692;" d="M180.441,203.818c-0.644,3.774,3.949,7.707,10.258,8.783
							c6.309,1.076,11.945-1.111,12.589-4.885c0.644-3.774-3.949-7.707-10.257-8.783
							C186.721,197.856,181.084,200.043,180.441,203.818z"/>
					</g>
					<path style="fill:#FFB692;" d="M191.503,147.361l-0.843,0.005c-5.405,0.029-9.749,6.895-9.705,15.337l0.222,41.852
						l20.415-0.108l-0.222-41.852C201.325,154.153,196.908,147.332,191.503,147.361z"/>
					<path style="fill:#D88D87;" d="M191.503,147.361l-0.843,0.005c-5.405,0.029-9.752,6.396-9.711,14.223l0.152,28.594
						c0.03,5.637,4.624,10.183,10.261,10.153l0,0c5.637-0.03,10.183-4.624,10.153-10.261l-0.152-28.594
						C201.323,153.654,196.908,147.332,191.503,147.361z"/>
					<path style="fill:#D88D87;" d="M195.916,185.29c-0.16,0.957-2.143,1.422-4.428,1.04c-2.286-0.382-4.009-1.468-3.849-2.425
						c0.16-0.957,2.143-1.422,4.428-1.04C194.353,183.248,196.077,184.334,195.916,185.29z"/>
					<g>
						
							<line style="fill:none;stroke:#284159;stroke-width:13;stroke-miterlimit:10;" x1="181.684" y1="288.711" x2="181.684" y2="442.443"/>
						<g>
							<path style="fill:#ECB220;" d="M191.106,418.581l-0.087,9.945c0,0,12.419,0.176,15.494,14.105l-34.135-0.03l0.545-24.18
								L191.106,418.581z"/>
							<path style="fill:#19283B;" d="M182.055,429.069c0.041,2.158-1.281,3.933-2.952,3.965c-1.672,0.032-3.06-1.691-3.102-3.849
								c-0.041-2.158,1.28-3.933,2.952-3.965C180.625,425.188,182.014,426.912,182.055,429.069z"/>
						</g>
					</g>
					<g>
						<g>
							<path style="fill:#252538;" d="M202.531,184.485l-21.983,0.117c-5.201,0.028-9.44-4.167-9.468-9.368l-0.068-12.797
								c-0.06-11.272,9.029-20.458,20.301-20.518l0,0c11.272-0.06,20.458,9.029,20.517,20.301l0.068,12.797
								C211.927,180.219,207.733,184.457,202.531,184.485z"/>
							<path style="fill:#252538;" d="M209.778,156.257c9.749-6.798,3.13-21.461,3.13-21.461l-6.773,7.122
								c0,0,1.499-9.011-4.706-13.01l-4.776,9.486c0,0-28.112-3.466-25.63,23.32L209.778,156.257z"/>
							<path style="fill:#D88D87;" d="M211.35,172.16h-40.561c-1.775,0-3.213-1.439-3.213-3.213l0,0
								c0-1.775,1.439-3.213,3.213-3.213h40.561c1.775,0,3.213,1.439,3.213,3.213l0,0C214.563,170.721,213.124,172.16,211.35,172.16
								z"/>
							<path style="fill:#AA635F;" d="M170.788,170.505c-0.859,0-1.558-0.699-1.558-1.558c0-0.859,0.699-1.558,1.558-1.558h40.561
								c0.859,0,1.558,0.699,1.558,1.558c0,0.859-0.699,1.558-1.558,1.558H170.788z"/>
							<path style="fill:#FFB692;" d="M191.602,197.713L191.602,197.713c-10.092,0.053-18.316-8.084-18.37-18.176l-0.092-17.346
								c-0.051-9.675,7.75-17.56,17.426-17.612l1.509-0.008c9.675-0.051,17.56,7.75,17.611,17.426l0.092,17.346
								C209.831,189.435,201.694,197.66,191.602,197.713z"/>
							<path style="fill:#252538;" d="M172.807,174.567h2.566v-17.411c0,0,4.306-0.782,7.686-4.211
								c1.649-1.673,3.927-2.578,6.276-2.578h9.226c3.225,0,6.151,1.763,7.784,4.545c0.681,1.16,1.647,2.463,3.018,3.813v15.842h1.4
								v-20.193c0-1.725-0.654-3.38-1.839-4.634c-2.794-2.956-8.74-7.822-17.61-7.822c-9.368,0-14.785,6.123-16.997,9.367
								c-0.768,1.126-1.178,2.45-1.178,3.813L172.807,174.567z"/>
							<g>
								<path style="fill:#D88D87;" d="M187.138,165.563l-4.199,0.022c-0.956,0.005-1.726,0.784-1.721,1.74
									c0.005,0.956,0.784,1.726,1.74,1.721l4.199-0.022c0.956-0.005,1.727-0.784,1.722-1.74
									C188.872,166.329,188.094,165.558,187.138,165.563z"/>
								<path style="fill:#D88D87;" d="M206.011,165.463l-4.199,0.022c-0.956,0.005-1.727,0.784-1.721,1.74
									c0.005,0.956,0.784,1.727,1.74,1.722l4.199-0.022c0.956-0.005,1.727-0.784,1.722-1.74
									C207.746,166.229,206.966,165.458,206.011,165.463z"/>
							</g>
							<g>
								<path style="fill:#252538;" d="M186.372,165.325c-1.181,0.006-2.134,0.969-2.127,2.15c0.006,1.181,0.969,2.133,2.15,2.127
									c1.181-0.006,2.133-0.969,2.127-2.15C188.515,166.271,187.552,165.319,186.372,165.325z"/>
								<path style="fill:#252538;" d="M202.575,165.239c-1.181,0.006-2.133,0.969-2.127,2.15c0.006,1.181,0.968,2.133,2.15,2.127
									c1.181-0.006,2.133-0.969,2.127-2.15C204.719,166.185,203.756,165.233,202.575,165.239z"/>
							</g>
							<g>
								<path style="fill:#252538;" d="M205.048,161.295l-3.713-1.148c-0.814-0.252-1.678,0.204-1.929,1.018
									c-0.252,0.814,0.204,1.677,1.018,1.929l3.713,1.148c0.814,0.252,1.677-0.204,1.929-1.018
									C206.317,162.41,205.861,161.547,205.048,161.295z"/>
								<path style="fill:#252538;" d="M185.396,160.232l-3.701,1.187c-0.811,0.26-1.257,1.129-0.997,1.94
									c0.26,0.811,1.128,1.258,1.94,0.997l3.701-1.187c0.811-0.26,1.257-1.129,0.997-1.94
									C187.075,160.418,186.207,159.971,185.396,160.232z"/>
							</g>
							<path style="fill:#D88D87;" d="M196.201,188.263c-0.16,0.956-2.141,1.421-4.424,1.039c-2.284-0.382-4.005-1.467-3.845-2.423
								c0.16-0.956,2.141-1.421,4.424-1.039C194.639,186.222,196.361,187.307,196.201,188.263z"/>
							<path style="fill:#D88D87;" d="M194.532,176.304L194.532,176.304c-1.681,0.009-3.051-1.347-3.06-3.027l-0.026-4.935
								c-0.009-1.681,1.346-3.051,3.027-3.06l0,0c1.681-0.009,3.051,1.346,3.06,3.027l0.026,4.935
								C197.568,174.925,196.213,176.295,194.532,176.304z"/>
							<path style="fill:#F79C97;" d="M196.139,174.567L196.139,174.567c-0.444,0.002-0.806-0.356-0.809-0.8l-0.03-5.713
								c-0.002-0.444,0.356-0.806,0.8-0.808l0,0c0.444-0.002,0.806,0.356,0.808,0.8l0.03,5.713
								C196.941,174.203,196.583,174.565,196.139,174.567z"/>
							<g>
								<path style="fill:#252538;" d="M197.391,178.836c-2.118-0.42-5.071-1.152-7.837-2.344c-1.819-0.784-3.522,1.499-2.626,3.556
									c0.954,2.189,2.702,4.274,5.909,4.686c2.628,0.338,4.339-0.29,5.453-1.224C199.867,182.188,199.279,179.21,197.391,178.836z
									"/>
								<path style="fill:#FF9292;" d="M192.837,184.734c-3.207-0.412-4.955-2.497-5.909-4.686c-0.134-0.309-0.204-0.621-0.23-0.929
									c1.164-0.469,2.695-0.617,4.72-0.09c3.126,0.814,4.581,3.101,5.232,5.39c0.001,0.005,0.001,0.009,0.003,0.014
									C195.666,184.786,194.421,184.937,192.837,184.734z"/>
								<path style="fill:#FFABAB;" d="M194.481,182.168c-0.338,0.531-1.552,0.394-2.71-0.305c-1.158-0.699-1.823-1.696-1.485-2.227
									c0.338-0.53,1.552-0.394,2.71,0.306C194.154,180.641,194.819,181.637,194.481,182.168z"/>
								<path style="fill:#FFFFFF;" d="M197.391,178.836c-2.118-0.42-5.071-1.152-7.837-2.344c-1.117-0.482-2.188,0.195-2.642,1.265
									c1.59,1.537,4.06,2.829,6.979,3.479c1.871,0.417,3.688,0.516,5.302,0.345C199.253,180.342,198.581,179.072,197.391,178.836z
									"/>
							</g>
						</g>
					</g>
				</g>
			</g>
			<polygon style="fill:#83A9FF;" points="260.203,106.314 255.833,98.254 225.314,98.254 225.314,149.894 295.092,149.894 
				295.092,106.314 			"/>
			<rect x="228.426" y="101.178" style="fill:#FFFFFF;" width="22.409" height="2.667"/>
			<g>
				<path style="fill:none;stroke:#FFB692;stroke-width:9;stroke-miterlimit:10;" d="M188.349,220.173
					c54.667,11.41,63.942-61.363,63.942-61.363"/>
				<g>
					<g>
						<path style="fill:#FFB692;" d="M248.16,162.524c-7.176-0.061-5.209-10.31-5.209-10.31l-3.35-6.473
							c0,0,5.895-2.733,7.561,3.562c0,0,3.14-5.676,2.513-10.487c-0.765-5.872,11.714,0.399,14.224,5.862
							c1.363,2.967-2.5,5.915-3.105,10.005C259.951,160.382,255.079,167.221,248.16,162.524z"/>
					</g>
					<g>
						<path style="fill:#D88D87;" d="M254.448,151.094l0.465,0.254c0,0,4.084-5.687,4.563-11.525
							c-0.258-0.191-0.519-0.377-0.785-0.557C258.717,141.626,258.109,145.871,254.448,151.094z"/>
						<path style="fill:#D88D87;" d="M258.017,152.72c0,0,3.738-5.089,4.876-9.659c-0.197-0.255-0.413-0.509-0.641-0.761
							c-0.445,1.958-1.647,5.847-4.739,10.16L258.017,152.72z"/>
						<path style="fill:#D88D87;" d="M251.144,149.615c0,0,4.342-5.672,3.522-12.489c-0.419-0.161-0.827-0.296-1.217-0.402
							c0.399,2.655,0.425,7.334-2.613,12.697L251.144,149.615z"/>
					</g>
				</g>
				<path style="fill:#1B7BBC;" d="M204.888,213.22l-17.106-1.578c-4.822-0.208-8.899,3.531-9.107,8.353l0,0
					c-0.208,4.822,3.531,8.899,8.353,9.107l17.106,1.579L204.888,213.22z"/>
			</g>
		</g>
		<g>
			
				<ellipse transform="matrix(0.7071 -0.7071 0.7071 0.7071 -19.2565 139.2644)" style="fill:#83A9FF;" cx="158.479" cy="92.877" rx="38.733" ry="38.733"/>
			<path style="fill:#1B7BBC;" d="M158.479,92.877L177.437,59.1c5.998,3.367,10.992,8.271,14.468,14.207
				c3.475,5.936,5.307,12.691,5.307,19.57H158.479z"/>
			<path style="fill:#ABC9FF;" d="M158.479,92.877h38.733c0,8.063-2.518,15.929-7.201,22.493c-4.683,6.564-11.3,11.505-18.924,14.13
				L158.479,92.877z"/>
		</g>
	</g>
</g>
</svg>
