<?xml version="1.0" encoding="utf-8"?>
<!-- Generator: Adobe Illustrator 27.5.0, SVG Export Plug-In . SVG Version: 6.00 Build 0)  -->
<svg version="1.1" xmlns="http://www.w3.org/2000/svg" xmlns:xlink="http://www.w3.org/1999/xlink" x="0px" y="0px"
	 viewBox="0 0 1122 1122" style="enable-background:new 0 0 1122 1122;" xml:space="preserve">
<g id="Bg">
	<rect style="fill:#FFFFFF;" width="1122" height="1122"/>
</g>
<g id="Object">
	<g>
		<path style="fill:#F4F4F4;" d="M168.023,764.205c-4.144-51.337,34.118-96.321,85.456-100.465
			c51.338-4.144,96.322,34.121,100.465,85.458c3.848,47.671-28.874,89.838-74.671,98.934l13.144,40.747l-47.289-40.263
			C204.149,841.582,171.522,807.56,168.023,764.205z"/>
		<path style="fill:#355DC2;" d="M932.401,607.5c3.774-46.752-31.07-87.718-77.823-91.492
			c-46.753-3.774-87.719,31.074-91.492,77.826c-3.504,43.413,26.295,81.814,68.001,90.098l-11.97,37.108l43.065-36.667
			C899.502,677.966,929.214,646.983,932.401,607.5z"/>
		
			<ellipse transform="matrix(0.1983 -0.9801 0.9801 0.1983 -368.0999 517.2061)" style="fill:#5DA3FB;" cx="132.1" cy="483.61" rx="47.492" ry="47.492"/>
		<circle style="fill:#5DA3FB;" cx="681.361" cy="746.775" r="11.053"/>
		
			<ellipse transform="matrix(0.0071 -1 1 0.0071 175.6775 1222.5283)" style="fill:#7FC1FC;" cx="703.443" cy="522.802" rx="18.299" ry="18.299"/>
		
			<ellipse transform="matrix(0.6916 -0.7223 0.7223 0.6916 -207.7441 234.9295)" style="fill:#B1DCFD;" cx="171.21" cy="360.715" rx="12.459" ry="12.459"/>
		<path style="fill:#355DC2;" d="M384.869,554.267c0,33.633-27.265,60.899-60.9,60.899c-33.633,0-60.9-27.266-60.9-60.899
			c0-33.635,27.267-60.901,60.9-60.901C357.604,493.366,384.869,520.631,384.869,554.267z"/>
		
			<ellipse transform="matrix(0.1763 -0.9843 0.9843 0.1763 -47.0996 627.8117)" style="fill:#B1DCFD;" cx="351.556" cy="342.047" rx="107.454" ry="107.454"/>
		<path style="fill:#B1DCFD;" d="M698.617,641.242c0,40.69-32.986,73.676-73.677,73.676c-40.69,0-73.677-32.987-73.677-73.676
			c0-40.693,32.987-73.679,73.677-73.679C665.63,567.564,698.617,600.55,698.617,641.242z"/>
		
			<ellipse transform="matrix(0.1226 -0.9925 0.9925 0.1226 -319.6779 960.9224)" style="fill:#90CD30;" cx="383.645" cy="661.266" rx="87.377" ry="87.377"/>
		<path style="fill:#838688;" d="M703.631,495.022c0.438,25.23-19.661,46.039-44.892,46.476
			c-25.23,0.438-46.039-19.661-46.477-44.892c-0.438-25.232,19.662-46.04,44.892-46.478
			C682.385,449.692,703.193,469.79,703.631,495.022z"/>
		<g>
			<circle style="fill:#B1DCFD;" cx="348.483" cy="801.927" r="15.272"/>
		</g>
		
			<ellipse transform="matrix(0.1473 -0.9891 0.9891 0.1473 -84.8037 926.0403)" style="fill:#5DA3FB;" cx="494.661" cy="512.203" rx="133.561" ry="133.561"/>
		
			<ellipse transform="matrix(0.1017 -0.9948 0.9948 0.1017 409.9757 1003.1151)" style="fill:#355DC2;" cx="760.44" cy="274.543" rx="41.422" ry="41.422"/>
		<g>
			
				<ellipse transform="matrix(0.2273 -0.9738 0.9738 0.2273 214.6077 1326.7421)" style="fill:#5DA3FB;" cx="943.33" cy="528.139" rx="25.332" ry="25.332"/>
		</g>
		
			<ellipse transform="matrix(0.0982 -0.9952 0.9952 0.0982 -282.0971 1240.2599)" style="fill:#B0B4B6;" cx="543.315" cy="775.788" rx="30.597" ry="30.596"/>
		
			<ellipse transform="matrix(0.0357 -0.9994 0.9994 0.0357 -193.8492 683.0322)" style="fill:#B0B4B6;" cx="257.019" cy="441.968" rx="42.952" ry="42.952"/>
		<path style="fill:#7FC1FC;" d="M723.01,379.375c0,35.919-29.118,65.039-65.038,65.039c-35.919,0-65.038-29.121-65.038-65.039
			s29.119-65.037,65.038-65.037C693.892,314.339,723.01,343.457,723.01,379.375z"/>
		<path style="fill:#355DC2;" d="M225.532,426.523c0,9.904-8.029,17.934-17.934,17.934c-9.904,0-17.934-8.03-17.934-17.934
			c0-9.904,8.029-17.934,17.934-17.934C217.503,408.59,225.532,416.619,225.532,426.523z"/>
		<path style="fill:#B1DCFD;" d="M1022.441,628.839c0,21.845-17.709,39.556-39.555,39.556c-21.845,0-39.555-17.711-39.555-39.556
			c0-21.845,17.71-39.555,39.555-39.555C1004.732,589.284,1022.441,606.993,1022.441,628.839z"/>
		<path style="fill:#DCF0FD;" d="M288.262,570.108c0,46.58-37.761,84.344-84.343,84.344c-46.58,0-84.343-37.764-84.343-84.344
			c0-46.58,37.763-84.341,84.343-84.341C250.501,485.767,288.262,523.528,288.262,570.108z"/>
		
			<ellipse transform="matrix(0.0706 -0.9975 0.9975 0.0706 223.405 899.7711)" style="fill:#DCF0FD;" cx="594.537" cy="330.002" rx="32.348" ry="32.348"/>
		<g>
			<path style="fill:#FFFFFF;" d="M233.138,430.481l-0.53,22.711c-0.037,1.602,1.273,2.932,2.926,2.971l42.271,0.987
				c1.653,0.039,3.024-1.229,3.061-2.831l0.53-22.689l-24.438,12.404L233.138,430.481z"/>
			<path style="fill:#FFFFFF;" d="M278.506,427.097l-42.271-0.987c-1.653-0.039-3.025,1.27-3.063,2.923l-0.012,0.501l23.85,12.499
				l24.407-11.372l0.012-0.501C281.468,428.507,280.159,427.136,278.506,427.097z"/>
		</g>
		<g>
			<path style="fill:#FFFFFF;" d="M350.208,577.45l1.617,1.145c1.324,0.936,3.44,0.221,4.728-1.599
				c1.288-1.819,1.258-4.053-0.066-4.99l-1.691-1.197c-0.66,1.516-1.397,2.795-2.154,3.865
				C351.829,575.825,350.994,576.731,350.208,577.45z"/>
			<path style="fill:#FFFFFF;" d="M294.755,533.268c-7.172,10.134-4.769,24.163,5.366,31.334c9.009,6.376,21.092,5.179,28.703-2.284
				l18.964,13.419c1.495-1.333,3.233-3.426,4.605-6.627l-18.907-13.379c4.506-9.661,1.614-21.454-7.396-27.829
				C315.955,520.73,301.926,523.133,294.755,533.268z M325.995,555.372c-5.038,7.12-14.893,8.807-22.012,3.77
				c-7.119-5.039-8.805-14.893-3.768-22.012c5.037-7.118,14.891-8.807,22.011-3.769
				C329.345,538.398,331.032,548.253,325.995,555.372z"/>
		</g>
		<path style="fill:#FFFFFF;" d="M636.554,496.462c0.214,12.337,10.424,22.201,22.763,21.987c4.257-0.074,8.387-1.377,11.899-3.68
			l2.707,4.549l4.111-8.099l4.11-8.1l-9.079-0.249l-9.079-0.249l2.599,4.369c-2.155,1.522-4.709,2.366-7.425,2.413
			c-7.349,0.127-13.432-5.748-13.56-13.098c-0.127-7.348,5.749-13.43,13.098-13.557c3.798-0.066,7.457,1.5,10.035,4.297
			c1.692,1.837,4.557,1.953,6.392,0.259c0.988-0.91,1.481-2.159,1.459-3.405c-0.021-1.07-0.417-2.138-1.198-2.986
			c-4.328-4.694-10.467-7.321-16.844-7.211C646.202,473.915,636.34,484.126,636.554,496.462z"/>
		<polygon style="fill:#FFFFFF;" points="596.07,309.877 602.042,321.978 615.396,323.919 605.732,333.338 608.014,346.638 
			596.07,340.358 584.123,346.638 586.405,333.338 576.743,323.919 590.098,321.978 		"/>
		<g>
			<g>
				<path style="fill:#FFFFFF;" d="M575.815,439.326H416.348c-3.278,0-5.934,2.473-5.934,5.523v111.157
					c0,3.049,2.655,5.522,5.934,5.522h159.467c3.274,0,5.933-2.473,5.933-5.522V444.849
					C581.748,441.799,579.089,439.326,575.815,439.326z M565.237,543.155c0,2.346-2.145,4.247-4.791,4.247H431.715
					c-2.646,0-4.79-1.901-4.79-4.247v-85.456c0-2.346,2.144-4.246,4.79-4.246h128.731c2.646,0,4.791,1.9,4.791,4.246V543.155z"/>
				<path style="fill:#FFFFFF;" d="M399.143,566.079v7.376c0,4.041,3.006,7.317,6.715,7.317h180.446
					c3.707,0,6.715-3.277,6.715-7.317v-7.376H399.143z M509.431,574.616h-26.703c-1.001,0-1.813-0.847-1.813-1.891
					c0-1.045,0.812-1.891,1.813-1.891h26.703c1.001,0,1.814,0.846,1.814,1.891C511.245,573.769,510.432,574.616,509.431,574.616z"/>
			</g>
		</g>
		<path style="fill:#FFFFFF;" d="M224.771,524.794h-36.49c-4.218,0-7.637,3.493-7.637,7.801v75.641c0,4.307,3.419,7.801,7.637,7.801
			h36.49c4.219,0,7.637-3.494,7.637-7.801v-75.641C232.408,528.287,228.99,524.794,224.771,524.794z M211.272,609.646
			c0,1.027-0.832,1.859-1.857,1.859h-5.776c-1.026,0-1.86-0.832-1.86-1.859v-3.185c0-1.027,0.833-1.86,1.86-1.86h5.776
			c1.025,0,1.857,0.832,1.857,1.86V609.646z M226.362,601.018h-39.673v-69.224h39.673V601.018z"/>
		<polygon style="fill:#FFFFFF;" points="995.705,628.732 974.673,610.005 977.161,637.536 982.215,631.446 988.213,643.342 
			993.572,640.613 987.454,628.827 		"/>
		<path style="fill:#3D3D3D;" d="M264.211,703.069c-20.459,0-37.104,16.645-37.104,37.104c0,13.41,7.153,25.179,17.842,31.699
			l1.1,27.42c0.125,3.156,2.552,5.78,5.603,6.268c1.152,3.451,6.336,6.055,12.56,6.055c6.18,0,11.336-2.567,12.536-5.981
			c3.374-0.174,6.158-2.959,6.275-6.358l0.948-27.713c10.413-6.578,17.344-18.188,17.344-31.389
			C301.315,719.713,284.671,703.069,264.211,703.069z M276.975,800.645c-0.001,0.028-0.065,0.103-0.127,0.103h-24.586
			c-0.067,0-0.143-0.085-0.145-0.121l-0.006-0.147l25.028-4.822L276.975,800.645z M277.22,793.243l-25.199,4.854l-0.132-3.459
			l25.447-4.902L277.22,793.243z M277.416,787.321l-25.618,4.935l-0.133-3.459l25.867-4.983L277.416,787.321z M277.612,781.398
			l-26.038,5.016l-0.209-5.449h26.261L277.612,781.398z M268.97,760.51c-0.129,0.227-0.199,0.482-0.204,0.742l-0.339,16.623h-7.95
			l-0.339-16.623c-0.005-0.271-0.081-0.536-0.219-0.769l-9.77-16.454h14.891h13.286L268.97,760.51z M278.132,767.708l-0.315,7.627
			l-0.005,0.002l-0.084,2.539h-5.808h-0.356l0.33-16.162l10.49-18.478c0.276-0.486,0.272-1.081-0.008-1.564
			c-0.281-0.483-0.797-0.779-1.356-0.779h-0.555H265.04h-17.647c-0.564,0-1.084,0.302-1.363,0.792
			c-0.279,0.49-0.273,1.092,0.014,1.577l10.966,18.468l0.33,16.146h-0.247h-5.844l-0.079-2.062l0.002,0.001l-0.29-7.82
			c-10.617-5.016-17.98-15.828-17.98-28.328c0-17.265,14.046-31.312,31.312-31.312c17.266,0,31.312,14.046,31.312,31.312
			C295.523,751.934,288.431,762.575,278.132,767.708z"/>
		
			<ellipse transform="matrix(0.0758 -0.9971 0.9971 0.0758 278.0359 1240.5775)" style="fill:#F4F4F4;" cx="808.258" cy="470.3" rx="75.681" ry="75.68"/>
		<g>
			<rect x="387.148" y="290.039" style="fill:#FFFFFF;" width="16.702" height="84.74"/>
			<rect x="362.194" y="303.24" style="fill:#FFFFFF;" width="16.703" height="71.54"/>
			<rect x="337.243" y="321.364" style="fill:#FFFFFF;" width="16.702" height="53.415"/>
			<rect x="312.288" y="340.027" style="fill:#FFFFFF;" width="16.702" height="34.752"/>
			<rect x="287.336" y="355.642" style="fill:#FFFFFF;" width="16.7" height="19.138"/>
		</g>
		<g>
			<path style="fill:#FFFFFF;" d="M632.126,654.014l-0.101,5.178c2.17,0.885,4.402,1.487,6.644,1.815l2.535-4.523
				c1.025,0.073,2.052,0.075,3.07,0.012l2.496,4.53c2.283-0.319,4.52-0.912,6.661-1.76l-0.065-5.177
				c0.917-0.449,1.807-0.956,2.667-1.521l4.426,2.675c1.796-1.395,3.44-3.021,4.888-4.857l-2.645-4.446
				c0.419-0.625,0.814-1.274,1.18-1.947c0.125-0.235,0.24-0.472,0.357-0.706l5.18,0.105c0.885-2.173,1.488-4.403,1.816-6.647
				l-4.524-2.534c0.07-1.024,0.074-2.052,0.009-3.069l4.532-2.498c-0.319-2.284-0.911-4.522-1.761-6.661l-5.178,0.069
				c-0.448-0.919-0.953-1.81-1.519-2.669l2.676-4.427c-1.397-1.796-3.022-3.436-4.861-4.887l-4.445,2.647
				c-0.626-0.421-1.274-0.817-1.948-1.182c-0.235-0.125-0.469-0.241-0.706-0.359l0.105-5.178c-2.172-0.883-4.401-1.488-6.644-1.815
				l-2.532,4.521c-1.027-0.069-2.051-0.073-3.071-0.011l-2.496-4.53c-2.286,0.317-4.523,0.91-6.664,1.761l0.067,5.177
				c-0.92,0.447-1.81,0.952-2.667,1.518l-4.428-2.675c-1.793,1.397-3.438,3.019-4.886,4.858l2.644,4.449
				c-0.416,0.624-0.814,1.274-1.181,1.948c-0.126,0.232-0.239,0.469-0.356,0.704l-5.181-0.107c-0.884,2.175-1.488,4.403-1.816,6.646
				l4.523,2.536c-0.067,1.025-0.072,2.052-0.01,3.07l-4.53,2.498c0.32,2.282,0.91,4.519,1.76,6.662l5.177-0.067
				c0.451,0.916,0.956,1.807,1.52,2.668l-2.675,4.425c1.397,1.796,3.023,3.439,4.86,4.886l4.445-2.644
				c0.626,0.418,1.274,0.815,1.948,1.181C631.654,653.782,631.891,653.895,632.126,654.014z M637.188,643.007
				c-5.753-3.114-7.893-10.297-4.78-16.047c3.11-5.753,10.297-7.891,16.046-4.779c5.751,3.111,7.892,10.296,4.778,16.045
				C650.119,643.98,642.934,646.119,637.188,643.007z"/>
			<path style="fill:#FFFFFF;" d="M601.761,671.975c0.833-0.126,1.644-0.318,2.428-0.575l2.136,2.337
				c1.235-0.506,2.402-1.138,3.488-1.888l-0.789-3.071c0.649-0.521,1.252-1.092,1.808-1.709l3.027,0.955
				c0.807-1.042,1.503-2.173,2.07-3.377l-2.209-2.265c0.298-0.77,0.531-1.566,0.704-2.388l3.093-0.685
				c0.09-0.646,0.15-1.31,0.168-1.981c0.019-0.666-0.002-1.329-0.055-1.98l-3.054-0.857c-0.129-0.832-0.319-1.642-0.574-2.425
				l2.335-2.138c-0.503-1.234-1.137-2.402-1.884-3.486l-3.074,0.788c-0.521-0.65-1.095-1.252-1.71-1.808l0.954-3.023
				c-1.041-0.81-2.173-1.507-3.378-2.078l-2.261,2.217c-0.77-0.3-1.567-0.534-2.391-0.712l-0.683-3.092
				c-0.65-0.091-1.31-0.146-1.976-0.163c-0.671-0.019-1.334,0-1.987,0.05l-0.853,3.055c-0.831,0.128-1.644,0.322-2.425,0.575
				l-2.14-2.336c-1.232,0.506-2.402,1.136-3.481,1.886l0.784,3.073c-0.651,0.521-1.251,1.09-1.807,1.71L585,645.63
				c-0.803,1.041-1.505,2.172-2.075,3.375l2.215,2.263c-0.3,0.769-0.533,1.568-0.707,2.391l-3.097,0.687
				c-0.09,0.645-0.145,1.306-0.164,1.975c-0.019,0.67,0.003,1.328,0.057,1.985l3.05,0.853c0.129,0.833,0.322,1.643,0.576,2.425
				l-2.336,2.14c0.504,1.232,1.136,2.404,1.888,3.483l3.074-0.785c0.519,0.645,1.088,1.249,1.705,1.807l-0.955,3.023
				c1.043,0.81,2.174,1.504,3.379,2.079l2.263-2.212c0.768,0.295,1.571,0.53,2.391,0.705l0.682,3.095
				c0.652,0.088,1.313,0.146,1.982,0.162c0.666,0.019,1.329-0.001,1.984-0.054L601.761,671.975z M598.911,663.381
				c-3.809-0.108-6.812-3.283-6.707-7.092c0.106-3.809,3.281-6.809,7.088-6.705c3.81,0.103,6.812,3.277,6.708,7.086
				C605.897,660.482,602.719,663.484,598.911,663.381z"/>
		</g>
		<path style="fill:#FFFFFF;" d="M415.416,663.869c-6.812-6.026-16.094-8.701-23.92-10.698l-0.002-14.837
			c4.675,2.215,5.622,6.81,5.622,6.81l22.172-3.661c-2.509-10.221-13.311-17.016-27.796-18.289l-0.001-5.763h-10.927l0.001,5.824
			c-13.456,1.313-26.15,7.404-26.714,22.111c-0.636,16.537,13.139,21.379,26.719,24.681l0.002,18.353
			c-6.699-2.927-6.917-10.748-6.917-10.748l-22.813,2.586c1.757,16.014,15.575,21.93,29.732,22.858l0.001,6.122h10.929l-0.001-6.323
			c7.86-0.771,14.805-2.775,18.539-5.015C421.876,690.775,426.609,673.77,415.416,663.869z M379.252,649.452
			c-5.923-3.051-5.108-9.242,1.314-11.466l0.002,12.064C380.098,649.857,379.656,649.659,379.252,649.452z M391.501,688.984
			l-0.002-15.943c5.448,1.881,7.327,3.683,8.205,6.755C400.756,683.474,398.106,687.577,391.501,688.984z"/>
		<g>
			<rect x="809.651" y="579.438" style="fill:#FFFFFF;" width="22.786" height="52.201"/>
			<rect x="836.373" y="597.253" style="fill:#FFFFFF;" width="22.786" height="34.387"/>
			<rect x="863.096" y="561.623" style="fill:#FFFFFF;" width="22.786" height="70.016"/>
			<rect x="805.094" y="635.161" style="fill:#FFFFFF;" width="85.76" height="4.143"/>
		</g>
		<g>
			<polygon style="fill:#3D3D3D;" points="793.995,458.956 811.235,479.377 828.474,458.956 821.147,458.956 821.147,428.954 
				801.322,428.954 801.322,458.956 			"/>
			<polygon style="fill:#3D3D3D;" points="833.862,468.805 833.862,488.119 788.607,488.119 788.607,468.805 779.664,468.805 
				779.664,497.033 842.805,497.033 842.805,468.805 			"/>
		</g>
		<polygon style="fill:#FFFFFF;" points="151.81,471.954 133.412,450.162 115.014,471.954 122.833,471.954 122.833,511.362 
			143.99,511.362 143.99,471.954 		"/>
		<path style="fill:#FFFFFF;" d="M677.699,366.451h-1.423v-4.549c0-9.552-7.772-17.324-17.321-17.324
			c-9.554,0-17.324,7.772-17.324,17.324v4.549h-1.423c-2.911,0-5.273,2.361-5.273,5.272v25.022c0,2.912,2.362,5.275,5.273,5.275
			h37.491c2.911,0,5.272-2.363,5.272-5.275v-25.022C682.971,368.812,680.61,366.451,677.699,366.451z M649.226,361.902
			c0-5.364,4.363-9.727,9.729-9.727c5.361,0,9.726,4.363,9.726,9.727v4.549h-19.454V361.902z"/>
		<path style="fill:#FFFFFF;" d="M733.571,275.725c0,0,12.907,7.057,21.008,23.069c6.804-14.261,17.692-35.836,30.771-46.553
			c-19.952,8.257-29.796,24.035-31.978,28.35C751.398,278.862,744.54,273.002,733.571,275.725z"/>
		<circle style="fill:#B0B4B6;" cx="1023.784" cy="674.585" r="13.608"/>
		
			<ellipse transform="matrix(0.1546 -0.988 0.988 0.1546 -522.6281 692.2433)" style="fill:#355DC2;" cx="143.165" cy="651.494" rx="37.18" ry="37.18"/>
		<g>
			<rect x="122.048" y="637.081" style="fill:#FFFFFF;" width="44.127" height="2.653"/>
			<rect x="122.048" y="642.197" style="fill:#FFFFFF;" width="44.127" height="2.653"/>
			<rect x="122.048" y="647.314" style="fill:#FFFFFF;" width="44.127" height="2.653"/>
			<rect x="122.048" y="652.43" style="fill:#FFFFFF;" width="44.127" height="2.653"/>
			<rect x="122.048" y="657.547" style="fill:#FFFFFF;" width="44.127" height="2.653"/>
			<rect x="122.048" y="662.663" style="fill:#FFFFFF;" width="21.942" height="2.653"/>
		</g>
		<path style="fill:#5DA3FB;" d="M533.81,813.635c2.496-30.923-20.551-58.02-51.475-60.516
			c-30.924-2.496-58.02,20.553-60.516,51.476c-2.318,28.715,17.393,54.115,44.978,59.594l-7.917,24.544l28.485-24.253
			C512.049,860.244,531.702,839.751,533.81,813.635z"/>
		<g>
			<g>
				<path style="fill:#FFFFFF;" d="M450.907,818.205c3.6,0,6.519-2.918,6.519-6.519c0-1.198-0.328-2.316-0.892-3.281l7.98-7.618
					c1.02,0.662,2.234,1.05,3.54,1.05c0.909,0,1.775-0.187,2.561-0.524l9.671,13.05c-0.955,1.134-1.533,2.597-1.533,4.195
					c0,3.6,2.918,6.519,6.519,6.519c3.6,0,6.519-2.918,6.519-6.519c0-1.271-0.37-2.453-0.999-3.456l13.781-17.487
					c0.832,0.386,1.756,0.607,2.734,0.607c3.6,0,6.519-2.919,6.519-6.519c0-3.6-2.918-6.519-6.519-6.519
					c-3.6,0-6.519,2.919-6.519,6.519c0,1.528,0.529,2.929,1.41,4.041l-13.578,17.228c-0.98-0.589-2.122-0.934-3.349-0.934
					c-0.908,0-1.772,0.187-2.557,0.522l-9.672-13.051c0.954-1.134,1.53-2.595,1.53-4.192c0-3.6-2.918-6.519-6.518-6.519
					c-3.6,0-6.519,2.918-6.519,6.519c0,1.198,0.329,2.316,0.892,3.281l-7.98,7.618c-1.02-0.662-2.234-1.05-3.54-1.05
					c-3.6,0-6.518,2.918-6.518,6.519C444.389,815.287,447.307,818.205,450.907,818.205z"/>
			</g>
			<rect x="445.892" y="828.66" style="fill:#FFFFFF;" width="69.537" height="3.359"/>
		</g>
	</g>
</g>
</svg>
