<?xml version="1.0" encoding="utf-8"?>
<!-- Generator: Adobe Illustrator 27.5.0, SVG Export Plug-In . SVG Version: 6.00 Build 0)  -->
<svg version="1.1" xmlns="http://www.w3.org/2000/svg" xmlns:xlink="http://www.w3.org/1999/xlink" x="0px" y="0px"
	 viewBox="0 0 500 500" style="enable-background:new 0 0 500 500;" xml:space="preserve">
<g id="Sparkles">
	<g>
		
			<path style="fill:none;stroke:#263238;stroke-width:2;stroke-linecap:round;stroke-linejoin:round;stroke-miterlimit:11.2252;" d="
			M84.506,204.839v6.162"/>
		
			<path style="fill:none;stroke:#263238;stroke-width:2;stroke-linecap:round;stroke-linejoin:round;stroke-miterlimit:11.2252;" d="
			M84.506,217.95v6.162"/>
		
			<path style="fill:none;stroke:#263238;stroke-width:2;stroke-linecap:round;stroke-linejoin:round;stroke-miterlimit:11.2252;" d="
			M74.87,214.476h6.163"/>
		
			<path style="fill:none;stroke:#263238;stroke-width:2;stroke-linecap:round;stroke-linejoin:round;stroke-miterlimit:11.2252;" d="
			M87.98,214.476h6.163"/>
	</g>
	<g>
		
			<path style="fill:none;stroke:#263238;stroke-width:2;stroke-linecap:round;stroke-linejoin:round;stroke-miterlimit:11.2252;" d="
			M314.882,31.494v6.162"/>
		
			<path style="fill:none;stroke:#263238;stroke-width:2;stroke-linecap:round;stroke-linejoin:round;stroke-miterlimit:11.2252;" d="
			M314.882,44.605v6.162"/>
		
			<path style="fill:none;stroke:#263238;stroke-width:2;stroke-linecap:round;stroke-linejoin:round;stroke-miterlimit:11.2252;" d="
			M305.246,41.131h6.163"/>
		
			<path style="fill:none;stroke:#263238;stroke-width:2;stroke-linecap:round;stroke-linejoin:round;stroke-miterlimit:11.2252;" d="
			M318.356,41.131h6.163"/>
	</g>
	<g>
		
			<path style="fill:none;stroke:#263238;stroke-width:2;stroke-linecap:round;stroke-linejoin:round;stroke-miterlimit:11.2252;" d="
			M413.83,198.285v6.162"/>
		
			<path style="fill:none;stroke:#263238;stroke-width:2;stroke-linecap:round;stroke-linejoin:round;stroke-miterlimit:11.2252;" d="
			M413.83,211.395v6.162"/>
		
			<path style="fill:none;stroke:#263238;stroke-width:2;stroke-linecap:round;stroke-linejoin:round;stroke-miterlimit:11.2252;" d="
			M404.194,207.921h6.163"/>
		
			<path style="fill:none;stroke:#263238;stroke-width:2;stroke-linecap:round;stroke-linejoin:round;stroke-miterlimit:11.2252;" d="
			M417.304,207.921h6.163"/>
	</g>
</g>
<g id="Stars">
	
		<polygon style="fill:none;stroke:#FFC051;stroke-width:2;stroke-linecap:round;stroke-linejoin:round;stroke-miterlimit:11.2252;" points="
		94.144,31.338 97.326,37.785 104.441,38.819 99.292,43.837 100.507,50.924 94.144,47.578 87.78,50.924 88.995,43.837 
		83.846,38.819 90.962,37.785 	"/>
	
		<polygon style="fill:none;stroke:#FFC051;stroke-width:2;stroke-linecap:round;stroke-linejoin:round;stroke-miterlimit:11.2252;" points="
		399,243.503 402.182,249.95 409.297,250.984 404.148,256.003 405.364,263.089 399,259.743 392.636,263.089 393.851,256.003 
		388.703,250.984 395.818,249.95 	"/>
</g>
<g id="Clouds">
	<path style="fill:#FFC051;" d="M413.791,137.352c0.026,0.297,0.039,0.591,0.04,0.883c0.01,2.738-2.27,4.936-5.008,4.936h-53.55
		c-2.702,0-4.989-2.143-5.003-4.844c0-0.018,0-0.036,0-0.053c0-5.622,4.561-10.184,10.191-10.184c2.936,0,5.579,1.252,7.438,3.243
		c1.091-7.145,7.241-12.629,14.686-12.629c7.145,0,13.105,5.037,14.547,11.743c2.019-1.684,4.7-2.601,7.603-2.301
		C409.521,128.64,413.372,132.558,413.791,137.352z"/>
	<path style="fill:none;stroke:#263238;stroke-width:2;stroke-linecap:round;stroke-linejoin:round;stroke-miterlimit:10;" d="
		M215.702,41.997c0.02,0.228,0.03,0.455,0.031,0.679c0.008,2.106-1.747,3.798-3.853,3.798h-41.204c-2.079,0-3.839-1.649-3.85-3.728
		c0-0.014,0-0.027,0-0.041c0-4.326,3.509-7.836,7.841-7.836c2.259,0,4.292,0.963,5.723,2.496c0.839-5.498,5.571-9.717,11.3-9.717
		c5.498,0,10.083,3.875,11.193,9.035c1.554-1.296,3.616-2.001,5.85-1.771C212.417,35.293,215.38,38.308,215.702,41.997z"/>
</g>
<g id="Pink_circles">
	<path style="fill:#FF367C;" d="M410.263,160.54c0,1.65-1.338,2.987-2.987,2.987c-1.65,0-2.987-1.337-2.987-2.987
		c0-1.65,1.337-2.987,2.987-2.987C408.925,157.552,410.263,158.89,410.263,160.54z"/>
	<path style="fill:#FF367C;" d="M87.493,123.191c0,1.65-1.337,2.987-2.987,2.987c-1.65,0-2.987-1.338-2.987-2.987
		c0-1.65,1.337-2.987,2.987-2.987C86.156,120.204,87.493,121.541,87.493,123.191z"/>
</g>
<g id="Yellow_circles">
	<path style="fill:none;stroke:#FFC051;stroke-width:2;stroke-linecap:round;stroke-linejoin:round;stroke-miterlimit:11.2252;" d="
		M262.858,31.718c0,1.954-1.585,3.539-3.539,3.539c-1.955,0-3.539-1.585-3.539-3.539c0-1.955,1.585-3.539,3.539-3.539
		C261.274,28.179,262.858,29.763,262.858,31.718z"/>
	<path style="fill:none;stroke:#FFC051;stroke-width:2;stroke-linecap:round;stroke-linejoin:round;stroke-miterlimit:11.2252;" d="
		M328.059,224.112c0,1.955-1.585,3.539-3.539,3.539c-1.954,0-3.539-1.584-3.539-3.539c0-1.954,1.585-3.539,3.539-3.539
		C326.474,220.573,328.059,222.157,328.059,224.112z"/>
	
		<circle style="fill:none;stroke:#FFC051;stroke-width:2;stroke-linecap:round;stroke-linejoin:round;stroke-miterlimit:11.2252;" cx="157.646" cy="228.681" r="3.539"/>
</g>
<g id="Puzzle_pieces">
	<path style="fill:#FF367C;" d="M373.918,186.936c-1.046-0.215-2.082-0.102-3.006,0.264l1.451-7.051l-6.972-1.435
		c0.646-0.688,1.12-1.553,1.325-2.545c0.588-2.856-1.251-5.648-4.108-6.236c-2.856-0.588-5.648,1.251-6.236,4.108
		c-0.204,0.992-0.11,1.974,0.212,2.861l-6.972-1.434l-4.681,22.751l22.751,4.681l1.451-7.051c0.704,0.701,1.612,1.214,2.658,1.43
		c2.856,0.588,5.648-1.252,6.236-4.108C378.613,190.316,376.774,187.524,373.918,186.936z"/>
	<path style="fill:#FFC051;" d="M128.534,147.319l5.129-4.145c-1.782-2.205-1.312-5.54,1.049-7.448
		c2.361-1.908,5.72-1.667,7.502,0.538l5.129-4.145l-14.194-17.565l-5.595,4.521c-0.143-0.782-0.468-1.532-0.993-2.182
		c-1.782-2.205-5.141-2.446-7.502-0.538c-2.362,1.908-2.831,5.243-1.049,7.448c0.526,0.651,1.191,1.125,1.925,1.429l-5.595,4.521
		L128.534,147.319z"/>
</g>
<g id="Paper_plane">
	<g>
		<g>
			
				<polygon style="fill:none;stroke:#FF367C;stroke-width:2;stroke-linecap:round;stroke-linejoin:round;stroke-miterlimit:10;" points="
				134.822,172.584 89.437,163.527 126.102,191.934 128.111,182.59 118.52,176.224 129.229,178.803 			"/>
			
				<polygon style="fill:none;stroke:#FF367C;stroke-width:2;stroke-linecap:round;stroke-linejoin:round;stroke-miterlimit:10;" points="
				102.249,173.454 116.176,192.03 120.258,187.5 			"/>
			
				<line style="fill:none;stroke:#FF367C;stroke-width:2;stroke-linecap:round;stroke-linejoin:round;stroke-miterlimit:10;" x1="89.437" y1="163.527" x2="118.52" y2="176.224"/>
		</g>
		<g>
			<g>
				<path style="fill:none;stroke:#FFC051;stroke-width:2;stroke-linecap:round;stroke-linejoin:round;" d="M134.448,186.363
					c1.484,0.512,3.052,1.088,4.686,1.74"/>
				
					<path style="fill:none;stroke:#FFC051;stroke-width:2;stroke-linecap:round;stroke-linejoin:round;stroke-dasharray:9.7791,9.7791;" d="
					M148.029,192.154c7.11,3.671,14.768,8.741,21.881,15.775c19.878,19.658,24.695,43.975,25.719,59.037"/>
				<path style="fill:none;stroke:#FFC051;stroke-width:2;stroke-linecap:round;stroke-linejoin:round;" d="M195.85,271.852
					c0.044,1.934,0.031,3.615,0,4.995"/>
			</g>
		</g>
	</g>
</g>
<g id="Speed_lines">
	<g>
		<path style="fill:none;stroke:#263238;stroke-width:2;stroke-linecap:round;stroke-linejoin:round;stroke-miterlimit:10;" d="
			M309.513,280.406c6.518-9.066,16.991-21.48,32.609-32.947c14.381-10.559,28.141-16.658,38.224-20.229"/>
		<path style="fill:none;stroke:#263238;stroke-width:2;stroke-linecap:round;stroke-linejoin:round;stroke-miterlimit:10;" d="
			M322.376,283.528c7.02-4.759,16.364-10.109,27.991-14.422c7.872-2.92,15.167-4.763,21.487-5.944"/>
	</g>
	<g>
		<path style="fill:none;stroke:#263238;stroke-width:2;stroke-linecap:round;stroke-linejoin:round;stroke-miterlimit:10;" d="
			M178.074,279.884c-6.518-9.066-16.991-21.48-32.609-32.947c-14.381-10.559-28.141-16.658-38.224-20.229"/>
		<path style="fill:none;stroke:#263238;stroke-width:2;stroke-linecap:round;stroke-linejoin:round;stroke-miterlimit:10;" d="
			M165.211,283.005c-7.02-4.759-16.364-10.109-27.99-14.422c-7.872-2.92-15.167-4.763-21.487-5.944"/>
	</g>
</g>
<g id="Lightbulb">
	<g>
		
			<ellipse transform="matrix(0.7071 -0.7071 0.7071 0.7071 -21.3786 215.9621)" style="fill:#FFC051;" cx="250" cy="133.787" rx="85.082" ry="85.082"/>
		
			<ellipse transform="matrix(0.9918 -0.1278 0.1278 0.9918 -15.0525 33.059)" style="opacity:0.3;fill:#FFFFFF;" cx="250" cy="133.787" rx="64.883" ry="64.883"/>
		<g>
			<path style="fill:none;stroke:#FF367C;stroke-width:2;stroke-linecap:round;stroke-linejoin:round;stroke-miterlimit:10;" d="
				M255.859,114.884c-9.53,0.044-17.204,5.644-17.172,12.533c0.015,3.213,1.714,6.167,4.542,8.359
				c2.924,2.307,8.604,4.707,13.136,3.897c0.857-0.153,1.654-0.472,2.31-0.9c1.892-1.234,2.433-3.43,1.214-5.042
				c-3.524-4.659-13.28-0.624-16.659,2.045c-2.808,2.218-4.48,5.166-4.465,8.4c0.032,6.867,7.757,12.418,17.286,12.375l0.152,52.055
				"/>
			<g>
				<path style="fill:none;stroke:#FF367C;stroke-width:2;stroke-linecap:round;stroke-linejoin:round;stroke-miterlimit:10;" d="
					M231.38,91.371c0.704,0.87,2.182,2.944,2.512,5.965c0.493,4.52-1.956,7.774-2.512,8.477"/>
				<path style="fill:none;stroke:#FF367C;stroke-width:2;stroke-linecap:round;stroke-linejoin:round;stroke-miterlimit:10;" d="
					M233.957,96.546c1.117-0.066,3.665-0.061,6.313,1.429c3.963,2.23,5.183,6.115,5.432,6.976"/>
				<path style="fill:none;stroke:#FF367C;stroke-width:2;stroke-linecap:round;stroke-linejoin:round;stroke-miterlimit:10;" d="
					M287.447,159.428c-1.119-0.021-3.658-0.225-6.182-1.918c-3.776-2.533-4.69-6.502-4.87-7.379"/>
				<path style="fill:none;stroke:#FF367C;stroke-width:2;stroke-linecap:round;stroke-linejoin:round;stroke-miterlimit:10;" d="
					M281.827,158.068c-0.668,0.898-2.312,2.843-5.158,3.91c-4.258,1.596-8.017,0.03-8.835-0.335"/>
				<path style="fill:none;stroke:#FF367C;stroke-width:2;stroke-linecap:round;stroke-linejoin:round;stroke-miterlimit:10;" d="
					M207.325,118.508c0.994-0.515,3.324-1.544,6.349-1.258c4.527,0.428,7.22,3.483,7.797,4.169"/>
				<path style="fill:none;stroke:#FF367C;stroke-width:2;stroke-linecap:round;stroke-linejoin:round;stroke-miterlimit:10;" d="
					M291.842,117.482c-0.9,0.665-3.038,2.05-6.071,2.245c-4.538,0.292-7.68-2.298-8.357-2.884"/>
				<path style="fill:none;stroke:#FF367C;stroke-width:2;stroke-linecap:round;stroke-linejoin:round;stroke-miterlimit:10;" d="
					M286.558,119.827c0.017,1.119-0.101,3.663-1.707,6.243c-2.403,3.86-6.339,4.908-7.21,5.117"/>
				<path style="fill:none;stroke:#FF367C;stroke-width:2;stroke-linecap:round;stroke-linejoin:round;stroke-miterlimit:10;" d="
					M214.398,159.925c0.865-0.71,2.929-2.203,5.948-2.553c4.517-0.524,7.787,1.902,8.494,2.453"/>
				<path style="fill:none;stroke:#FF367C;stroke-width:2;stroke-linecap:round;stroke-linejoin:round;stroke-miterlimit:10;" d="
					M219.556,157.313c-0.074-1.117-0.086-3.664,1.386-6.322c2.203-3.978,6.079-5.225,6.938-5.48"/>
				<path style="fill:none;stroke:#FF367C;stroke-width:2;stroke-linecap:round;stroke-linejoin:round;stroke-miterlimit:10;" d="
					M308.72,138.54c0-10.037-7.5-18.425-17.529-20.516c3.622-3.401,5.862-8.098,5.862-13.285c0-10.383-8.973-18.8-20.042-18.8
					c-5.93,0-11.241,2.43-14.911,6.27c-0.229-7.689-6.93-13.861-15.183-13.861c-8.145,0-14.775,6.013-15.167,13.563
					c-3.129-2.201-7.002-3.52-11.214-3.52c-10.347,0-18.735,7.868-18.735,17.574c0,4.853,2.097,9.247,5.488,12.428
					c-9.258,2.584-16.011,10.624-16.011,20.147c0,11.61,10.033,21.022,22.41,21.022c0.385,0,0.768-0.009,1.148-0.027
					c-0.106,0.541-1.326,4.106-1.489,8.276c-0.416,10.662,8.689,18.403,19.319,19.319c15.021,1.296,22.748-10.892,23.429-13.818
					c0,0-0.006,0.019,0,0c7.06,16.032,38.108,13.914,33.045-13.946C300.178,158.056,308.72,149.247,308.72,138.54z"/>
			</g>
		</g>
		<g>
			
				<line style="fill:none;stroke:#263238;stroke-width:2;stroke-linecap:round;stroke-linejoin:round;stroke-miterlimit:10;" x1="208.458" y1="244.819" x2="291.542" y2="244.503"/>
			<path style="fill:none;stroke:#263238;stroke-width:2;stroke-linecap:round;stroke-linejoin:round;stroke-miterlimit:10;" d="
				M286.984,262.096l-73.651,0.28c-2.605,0.01-4.726-1.773-4.738-3.983l-0.275-49.473l83.085-0.315l0.275,49.471
				C291.692,260.286,289.589,262.086,286.984,262.096z"/>
			
				<line style="fill:none;stroke:#263238;stroke-width:2;stroke-linecap:round;stroke-linejoin:round;stroke-miterlimit:10;" x1="208.458" y1="228.488" x2="291.542" y2="228.172"/>
			<path style="fill:none;stroke:#263238;stroke-width:2;stroke-linecap:round;stroke-linejoin:round;stroke-miterlimit:10;" d="
				M264.977,274.276h-29.954c-1.437,0-2.602-1.165-2.602-2.602v-9.379h35.158v9.379
				C267.579,273.111,266.414,274.276,264.977,274.276z"/>
		</g>
	</g>
	<g>
		
			<line style="fill:none;stroke:#FF367C;stroke-width:2;stroke-linecap:round;stroke-linejoin:round;stroke-miterlimit:10;" x1="160.852" y1="85.302" x2="108.138" y2="66.863"/>
		
			<line style="fill:none;stroke:#FF367C;stroke-width:2;stroke-linecap:round;stroke-linejoin:round;stroke-miterlimit:10;" x1="158.529" y1="96.275" x2="111.064" y2="93.391"/>
		
			<line style="fill:none;stroke:#FF367C;stroke-width:2;stroke-linecap:round;stroke-linejoin:round;stroke-miterlimit:10;" x1="165.314" y1="76.018" x2="128.391" y2="47.686"/>
	</g>
	<g>
		
			<line style="fill:none;stroke:#FF367C;stroke-width:2;stroke-linecap:round;stroke-linejoin:round;stroke-miterlimit:10;" x1="337.406" y1="85.302" x2="390.121" y2="66.863"/>
		
			<line style="fill:none;stroke:#FF367C;stroke-width:2;stroke-linecap:round;stroke-linejoin:round;stroke-miterlimit:10;" x1="339.729" y1="96.275" x2="387.194" y2="93.391"/>
		
			<line style="fill:none;stroke:#FF367C;stroke-width:2;stroke-linecap:round;stroke-linejoin:round;stroke-miterlimit:10;" x1="332.944" y1="76.018" x2="369.867" y2="47.686"/>
	</g>
</g>
<g id="Box">
	<g>
		<polygon style="fill:#FF367C;" points="442.571,368.915 382.05,290.318 250,290.318 117.95,290.318 57.429,368.915 
			117.95,368.915 117.95,467.97 382.05,467.97 382.05,368.915 		"/>
		
			<line style="fill:none;stroke:#FFFFFF;stroke-width:2;stroke-linecap:round;stroke-linejoin:round;stroke-miterlimit:10;" x1="250" y1="290.318" x2="250" y2="467.97"/>
		
			<polyline style="fill:none;stroke:#FFFFFF;stroke-width:2;stroke-linecap:round;stroke-linejoin:round;stroke-miterlimit:10;" points="
			250,290.318 187.594,368.915 57.429,368.915 		"/>
		
			<polyline style="fill:none;stroke:#FFFFFF;stroke-width:2;stroke-linecap:round;stroke-linejoin:round;stroke-miterlimit:10;" points="
			250,290.318 312.406,368.915 442.571,368.915 		"/>
	</g>
</g>
<g id="Floor">
	
		<line style="fill:none;stroke:#263238;stroke-width:2;stroke-linecap:round;stroke-linejoin:round;stroke-miterlimit:10;" x1="32.264" y1="468.029" x2="467.736" y2="468.029"/>
</g>
</svg>
