<?xml version="1.0" encoding="utf-8"?>
<!-- Generator: Adobe Illustrator 27.5.0, SVG Export Plug-In . SVG Version: 6.00 Build 0)  -->
<svg version="1.1" id="Слой_1" xmlns="http://www.w3.org/2000/svg" xmlns:xlink="http://www.w3.org/1999/xlink" x="0px" y="0px"
	 viewBox="0 0 2523.064 2000.001" style="enable-background:new 0 0 2523.064 2000.001;" xml:space="preserve">
<g>
	<rect x="-0.001" style="fill:#FFFFFF;" width="2523.065" height="2000.001"/>
	<g>
		<linearGradient id="SVGID_1_" gradientUnits="userSpaceOnUse" x1="348.2217" y1="913.2952" x2="1793.7983" y2="913.2952">
			<stop  offset="0" style="stop-color:#3076A1"/>
			<stop  offset="1" style="stop-color:#639C38"/>
		</linearGradient>
		<path style="fill:url(#SVGID_1_);" d="M1769.984,872.047L419.666,92.44c-31.754-18.333-71.444,4.583-71.444,41.248v1559.213
			c0,36.666,39.69,59.581,71.444,41.249l1350.318-779.607C1801.736,936.211,1801.736,890.38,1769.984,872.047z"/>
		<g>
			<path style="fill:#FFFFFF;" d="M461.878,704.424c5.652,13.57,13.136,26.078,22.095,37.28l-13.139,27.554l26.527,19.898
				l26.528,19.9l22.775-20.325c13.262,5.466,27.364,9.149,41.974,10.777l10.185,28.751l32.829-4.688l32.829-4.688l1.73-30.452
				c13.57-5.651,26.079-13.136,37.28-22.095l27.554,13.14l19.898-26.528l19.9-26.528l-20.325-22.774
				c5.466-13.262,9.149-27.365,10.778-41.975l28.75-10.184l-4.688-32.829l-4.688-32.829l-30.452-1.731
				c-5.651-13.569-13.136-26.078-22.094-37.28l13.139-27.553l-26.528-19.899l-26.528-19.898l-22.774,20.325
				c-13.262-5.466-27.365-9.15-41.975-10.778l-10.184-28.751l-32.829,4.689l-32.829,4.688l-1.73,30.451
				c-13.57,5.652-26.079,13.136-37.28,22.095l-27.554-13.139l-19.899,26.527l-19.898,26.528l20.325,22.775
				c-5.466,13.262-9.15,27.364-10.778,41.974l-28.75,10.185l4.688,32.829l4.688,32.828L461.878,704.424z M589.624,529.227
				c63.531-9.071,122.388,35.077,131.459,98.609c9.071,63.531-35.077,122.388-98.608,131.459
				c-63.531,9.071-122.388-35.077-131.46-98.608C481.943,597.154,526.092,538.299,589.624,529.227z"/>
		</g>
		<g>
			<path style="fill:#FFFFFF;" d="M455.621,381.704c2.591,6.222,6.022,11.956,10.129,17.091l-6.023,12.632l12.161,9.123
				l12.162,9.123l10.441-9.318c6.079,2.506,12.545,4.194,19.242,4.941l4.669,13.18l15.051-2.148l15.05-2.149l0.794-13.96
				c6.221-2.592,11.955-6.022,17.091-10.129l12.632,6.023l9.122-12.162l9.123-12.162l-9.318-10.44
				c2.506-6.08,4.194-12.545,4.941-19.243l13.181-4.669l-2.149-15.05l-2.148-15.051l-13.961-0.793
				c-2.591-6.222-6.022-11.956-10.129-17.091l6.023-12.632l-12.162-9.123l-12.161-9.122l-10.441,9.317
				c-6.08-2.505-12.545-4.194-19.243-4.94l-4.668-13.181l-15.051,2.148l-15.05,2.149l-0.794,13.96
				c-6.221,2.592-11.955,6.023-17.091,10.13l-12.632-6.024l-9.122,12.162l-9.123,12.162l9.318,10.44
				c-2.506,6.08-4.195,12.546-4.941,19.243l-13.181,4.669l2.149,15.05l2.148,15.051L455.621,381.704z M514.186,301.387
				c29.125-4.159,56.107,16.081,60.267,45.206c4.158,29.126-16.081,56.108-45.207,60.267c-29.126,4.159-56.108-16.08-60.267-45.206
				C464.819,332.527,485.06,305.545,514.186,301.387z"/>
		</g>
		<g>
			<g>
				<path style="fill:#EEA886;" d="M1478.741,769.515c0,0,81.224-26.393,87.823-23.447c6.6,2.946,7.491,7.601-0.02,10.397
					c-7.512,2.795-77.883,27.858-77.883,27.858s100.365-14.465,106.33-13.322c3.493,0.669,5.733,9.547,1.827,11.429
					c-3.907,1.883-102.871,22.175-102.871,22.175s93.725-13.329,98.372-10.792c4.066,2.22,4.156,11.008-2.752,12.496
					c-6.908,1.488-93.465,19.007-93.465,19.007s68.594-5.21,71.213-0.563c1.602,2.842,3.884,10.403-13.832,11.167
					c-17.715,0.764-59.529,7.179-59.529,7.179L1478.741,769.515z"/>
			</g>
			<g>
				<g>
					<path style="fill:#EEA886;" d="M1389.244,815.005c0,0,26.283-10.447,28.168-27.033c1.604-14.103,13.309-31.591,16.903-36.982
						c4.809-7.21,11.983-34.745,20.406-28.874c8.423,5.87-9.777,45.889-12.035,55.005s33.617-10.313,42.592-8.556
						c8.974,1.756,33.413,64.672,7.458,75.075c-25.954,10.404-59.408,3.792-63.67,6.56c-4.263,2.766-18.636,8.342-18.636,8.342
						L1389.244,815.005z"/>
				</g>
			</g>
			<g>
				<path style="fill:#DBD8E3;" d="M1072.401,1286.534c0.589,7.601,1.222,14.84,1.811,21.31H698.098
					c0.136-6.335,0.316-13.527,0.452-21.31c1.267-62.709,3.122-165.503,2.308-204.323c-1.041-55.424-12.714-199.435-15.022-207.76
					c0,0-82.524-119.897-169.077,116.774c-17.871,48.773,145.958,170.977,125.598,174.732c-20.315,3.711-19.5,42.395-19.5,42.395
					s-154.282-134.376-151.115-173.965c1.765-21.988,122.566-341.502,141.026-354.713c12.577-9.049,91.573-40.72,132.52-56.238
					c18.957-7.239,33.39-12.261,36.376-12.442c9.366-0.588,124.919,10.497,124.919,10.497s16.56,5.656,33.526,13.438
					c28.911,13.256,73.974,34.023,106.278,49.406c10.451,4.977,23.526,11.674,34.386,17.42
					c-1.313,39.272-3.665,81.393-6.968,126.411c0,0-6.018,98.315-6.561,197.626c-5.203,22.486-4.298,74.743-4.298,74.743
					c-1.448,49.542,4.071,100.396,5.52,128.81C1069.371,1247.126,1070.863,1267.938,1072.401,1286.534z"/>
			</g>
			<g>
				<path style="fill:#323657;" d="M1088.645,1286.534c-5.43-35.154-10.587-71.758-14.84-106.776v-0.271
					c-0.679-5.701-1.357-11.356-2.036-16.967c0-0.271-0.046-0.588-0.091-0.859c-2.715-23.708-4.932-46.375-6.561-67.143
					c-1.222-15.926-0.136-31.444,2.082-46.691c6.424-106.188,9.637-218.168,9.637-218.168c3.394-45.877,5.339-88.678,6.65-128.628
					c0,0-145.098-68.545-158.264-72.481c0,0,27.509,64.608,48.14,209.073c7.963,55.469,22.667,148.854,33.345,244.183
					c4.208,37.597,11.131,75.648,17.736,111.481c6.243,33.797,12.216,65.648,15.428,93.248c0.227,1.674,0.407,3.348,0.588,5.021
					c0.498,4.751,1.086,10.226,1.765,16.288h49.769C1090.861,1300.831,1089.73,1293.683,1088.645,1286.534z"/>
			</g>
			<g>
				<path style="fill:#323657;" d="M833.061,1117.593c-6.606,64.064-13.845,115.916-19.682,168.941
					c-0.768,7.058-1.538,14.161-2.262,21.31H658.509c1.991-7.058,3.937-14.161,5.791-21.31
					c16.379-61.759,29.454-124.783,29.454-163.015c0,0-31.761-228.392-42.393-265.176c0,0-96.053,71.033-118.494,120.214
					c-20.089,43.977,127.091,178.307,125.371,182.831c-9.999,26.468-48.32,74.834-48.32,74.834S382.022,991.452,385.054,961.274
					c2.172-21.943,193.237-265.9,211.651-279.111c10.678-7.646,89.584-35.607,128.313-50.899
					c7.104-2.805,30.178-11.492,36.512-13.89c8.19,9.139,65.921,71.259,85.919,307.344
					C850.842,964.531,840.209,1048.776,833.061,1117.593z"/>
			</g>
			<g>
				<path style="fill:#EEA987;" d="M792.328,623.28c0,0-0.794-39.67-16.082-119.924c-4.09-21.483,124.721,56.527,124.721,56.527
					s-0.396,7.524-0.655,17.687c-0.138,5.367-0.225,11.458-0.189,17.566c0.017,2.157,0.034,4.297,0.086,6.419
					c0.121,5.678,0.38,11.113,0.863,15.736c0.482,4.764,3.295,13.167,4.296,15.479C910.682,645.023,835.707,654.323,792.328,623.28z
					"/>
			</g>
			<path style="fill:#323657;" d="M872.727,664.845l21.353,28.688c0,0-12.51,16.752-34.726,4.385L872.727,664.845z"/>
			<path style="fill:#323657;" d="M888.368,694.697c0,0,80.98,311.786,64.289,554.481l-27.245,48.017l-25.504-50.301
				c0,0-6.986-434.117-29.19-552.962L888.368,694.697z"/>
			<path style="fill:#EEA987;" d="M895.591,638.099l-22.863,26.746c0,0-36.69-7.108-47.464-26.273
				C814.49,619.405,895.591,638.099,895.591,638.099z"/>
			<path style="fill:#C4C1CC;" d="M900.834,614.69c0,0-2.655,20.389-28.107,50.154l27.781,37.323l15.034-77.425L900.834,614.69z"/>
			<path style="fill:#C4C1CC;" d="M790.215,595.293c0,0,45.414,54.885,82.513,69.552l-17.256,42.675l-86.344-92.829L790.215,595.293
				z"/>
			<g>
				<path style="fill:#323657;" d="M1457.494,859.532c0,0-195.719,212.632-241.904,201.27
					c-21.352-5.252-53.692-42.109-80.416-76.761c-8.811-11.411-17.449-23.388-25.67-35.24c-0.023-0.024-0.023-0.05-0.023-0.05
					c-32.787-47.338-58.48-92.714-58.48-92.714s-96.912-113.574-19.145-164.201c0,0,32.775-3.308,51.418,10.444
					c17.213,12.697,59.09,92.65,65.889,107.474c6.797,14.798,59.685,119.299,64.616,122.391
					c4.935,3.093,56.872-28.084,84.637-46.771c44.863-30.197,101.23-82.826,101.23-82.826L1457.494,859.532z"/>
			</g>
			<g>
				<path style="fill:#EEA886;" d="M968.796,362.4c0,0,28.299,52.466,14.273,60.624c-11.589,6.741,13.577,58.228,16.87,66.641
					c3.293,8.412-20.992,14.523-26.15,19.938c-5.156,5.414-20.449,72.034-40.45,74.043c-20,2.008-110.122-29.333-134.662-54.848
					c-24.54-25.516-44.675-140.764-28.295-189.377C786.763,290.809,918.852,270.751,968.796,362.4z"/>
			</g>
			<g>
				<path style="fill:#16202E;" d="M974.443,373.77c0,0,28.889-56.66-23.582-98.693c-52.471-42.032-149.224,31.737-160.128,34.551
					c-10.903,2.813-72.775,7.063-41.535,115.697c26.825,93.283,30.573,97.208,30.573,97.208s20.02-54.04,31.365-62.276
					c17.718-12.863,56.564-9.773,56.564-9.773s-18.51-49.143,10.416-56.102C907.044,387.423,945.178,362.905,974.443,373.77z"/>
			</g>
			<g>
				<path style="fill:#EEA886;" d="M836.885,422.342c-2.552-6.74-10.8-35.711-35.659-18.698
					c-24.86,17.013,15.488,71.615,19.822,72.319C825.382,476.668,858.354,479.065,836.885,422.342z"/>
			</g>
			<path style="fill:#A77860;" d="M900.122,595.137c0.017,2.157,0.034,4.297,0.086,6.419c-73.68-24.727-87.95-61.946-87.95-61.946
				c22.984,16.255,88.054,37.961,88.054,37.961C900.174,582.938,900.087,589.028,900.122,595.137z"/>
			<path style="fill:#EEA886;" d="M631.648,1160.595c0,0,6.973,5.844,14.36,5.781c12.757-0.107,27.279-13.974,40.612-1.38
				s-14.736,66.157-24.846,72.434c-10.11,6.276-33.089-5.003-57.679-34.723C579.506,1172.987,631.648,1160.595,631.648,1160.595z"/>
			<path style="fill:#EEA886;" d="M681.519,1161.411c0,0,25.802,8.864,53.3,22.281c24.125,11.771,52.431,29.749,49.544,35.856
				c-4.384,9.275-25.902-8.12-50.607-18.168c-22.745-9.251-19.82-3.571-19.82-3.571s-0.743-1.664,22.07,13.293
				c24.53,16.082,50.205,34.382,47.937,39.43c-2.813,6.257-3.692,6.799-13.555,2.435c5.127,3.74,4.827,5.692,3.466,8.005
				c-7.045,11.967-46.78-5.978-62.559-13.108c12.087,5.553,20.358,10.938,11.317,15.476c-10.345,5.189-65.375-22.749-86.05-30.839
				C614.007,1223.676,681.519,1161.411,681.519,1161.411z"/>
			<path style="fill:#323657;" d="M658.244,1161.411c0,0-5.608,32.831-48.315,74.819c0,0-97.887-107.986-115.349-128.204
				l76.592-44.439L658.244,1161.411z"/>
		</g>
		<rect x="437.871" y="1286.534" style="fill:#FFFFFF;" width="1346.781" height="21.309"/>
		<path style="fill:#4CA1F4;" d="M1093.852,514.785h53.158c9.666,0,17.502-7.837,17.502-17.503v-53.157
			c0-9.667-7.836-17.503-17.502-17.503h-53.158c-9.666,0-17.502,7.836-17.502,17.503v53.157
			C1076.35,506.948,1084.186,514.785,1093.852,514.785z"/>
		<g style="opacity:0.69;">
			<path style="opacity:0.72;fill:#D9D9D9;" d="M1493.445,337.235h-286.854c-5.027,0-9.103-4.075-9.103-9.103v-9.175
				c0-5.027,4.075-9.104,9.103-9.104h286.854c5.027,0,9.103,4.076,9.103,9.104v9.175
				C1502.548,333.16,1498.473,337.235,1493.445,337.235z"/>
			<path style="opacity:0.72;fill:#D9D9D9;" d="M1535.976,381.504h-329.384c-5.027,0-9.103-4.075-9.103-9.103v-9.176
				c0-5.027,4.075-9.103,9.103-9.103h329.384c5.026,0,9.103,4.075,9.103,9.103v9.176
				C1545.078,377.429,1541.002,381.504,1535.976,381.504z"/>
		</g>
		<path style="fill:#4CA1F4;" d="M1093.852,389.761h53.158c9.666,0,17.502-7.836,17.502-17.503v-53.157
			c0-9.666-7.836-17.503-17.502-17.503h-53.158c-9.666,0-17.502,7.837-17.502,17.503v53.157
			C1076.35,381.925,1084.186,389.761,1093.852,389.761z"/>
		<g style="opacity:0.69;">
			<path style="opacity:0.72;fill:#D9D9D9;" d="M1418.885,462.26h-213.504c-4.358,0-7.892-3.533-7.892-7.892v-11.598
				c0-4.358,3.533-7.892,7.892-7.892h213.504c4.358,0,7.892,3.533,7.892,7.892v11.598
				C1426.776,458.727,1423.243,462.26,1418.885,462.26z"/>
			<path style="opacity:0.72;fill:#D9D9D9;" d="M1471.311,506.528h-265.622c-4.528,0-8.199-3.672-8.199-8.2v-10.981
				c0-4.528,3.671-8.199,8.199-8.199h265.622c4.529,0,8.2,3.671,8.2,8.199v10.981
				C1479.511,502.856,1475.84,506.528,1471.311,506.528z"/>
		</g>
		<g style="opacity:0.69;">
			<path style="opacity:0.72;fill:#D9D9D9;" d="M1520.65,587.284h-313.655c-5.25,0-9.506-4.256-9.506-9.506v-8.369
				c0-5.25,4.256-9.506,9.506-9.506h313.655c5.25,0,9.506,4.256,9.506,9.506v8.369C1530.156,583.028,1525.9,587.284,1520.65,587.284
				z"/>
			<path style="opacity:0.72;fill:#D9D9D9;" d="M1494.02,631.552h-288.003c-4.71,0-8.527-3.817-8.527-8.527v-10.325
				c0-4.71,3.817-8.528,8.527-8.528h288.003c4.71,0,8.528,3.818,8.528,8.528v10.325
				C1502.548,627.734,1498.729,631.552,1494.02,631.552z"/>
		</g>
		<path style="fill:#4CA1F4;" d="M1093.852,639.809h53.158c9.666,0,17.502-7.836,17.502-17.502v-53.158
			c0-9.666-7.836-17.502-17.502-17.502h-53.158c-9.666,0-17.502,7.836-17.502,17.502v53.158
			C1076.35,631.973,1084.186,639.809,1093.852,639.809z"/>
		<g>
			<g>
				<g>
					<g>
						<g>
							<path style="fill:#FFFFFF;" d="M1117.422,492.011l-24.465-21.257c-2.006-1.743-2.22-4.783-0.477-6.788
								c1.743-2.007,4.782-2.22,6.789-0.477l17.301,15.031l24.59-27.518c1.771-1.982,4.813-2.153,6.794-0.382
								c1.982,1.771,2.153,4.813,0.382,6.795L1117.422,492.011z"/>
						</g>
					</g>
				</g>
			</g>
		</g>
		<g>
			<g>
				<g>
					<g>
						<g>
							<path style="fill:#FFFFFF;" d="M1117.422,617.035l-24.465-21.257c-2.006-1.743-2.22-4.783-0.477-6.789
								c1.743-2.006,4.782-2.219,6.789-0.477l17.301,15.032l24.59-27.518c1.771-1.983,4.813-2.153,6.794-0.382
								c1.982,1.771,2.153,4.813,0.382,6.794L1117.422,617.035z"/>
						</g>
					</g>
				</g>
			</g>
		</g>
		<g>
			<path style="fill:#FFFFFF;" d="M1118.795,356.429l-0.15-1.939c-0.447-4.028,0.896-8.429,4.625-12.903
				c3.355-3.953,5.221-6.862,5.221-10.219c0-3.804-2.387-6.34-7.086-6.414c-2.684,0-5.668,0.896-7.533,2.313l-1.789-4.699
				c2.461-1.79,6.713-2.983,10.666-2.983c8.576,0,12.455,5.296,12.455,10.964c0,5.072-2.834,8.727-6.414,12.978
				c-3.281,3.878-4.475,7.16-4.252,10.964l0.074,1.939H1118.795z M1117.154,366.871c0-2.76,1.863-4.699,4.475-4.699
				c2.609,0,4.4,1.939,4.4,4.699c0,2.61-1.715,4.624-4.475,4.624C1118.943,371.495,1117.154,369.481,1117.154,366.871z"/>
		</g>
		<g>
			<g>
				<g>
					<path style="fill:#DBD8E3;" d="M1421.599,1503.857c4.069,17.653,3.366,58.66,3.366,58.66
						c1.107,38.897-3.231,78.842-4.339,101.147c-0.029,0.688-0.074,1.377-0.104,2.08c-0.284,5.266-0.628,10.846-1.018,16.502
						h290.982c-0.104-5.356-0.21-10.877-0.3-16.502c-0.583-32.928-1.106-68.998-1.151-94.745
						c66.499-17.563,138.31-40.483,136.963-57.239c-1.376-17.249-53.185-271.219-67.666-281.586
						c-9.874-7.092-71.886-31.941-104.051-44.148c-14.87-5.67-26.211-9.62-28.529-9.755c-7.36-0.464-98.066,8.229-98.066,8.229
						s-13.016,4.458-26.301,10.563c-22.694,10.412-58.062,26.689-83.449,38.777c-8.198,3.89-18.446,9.171-26.974,13.688
						c1.032,30.819,2.857,63.867,5.476,99.203C1416.438,1348.731,1421.15,1425.913,1421.599,1503.857z M1709.902,1533.239
						c3.576-48.352,18.162-131.413,19.778-137.292c0.045,0,6.837,6.478,6.882,6.478c0-0.029,2.244,0.314,2.273,0.284
						c0.03-0.09,2.064,0.778,2.064,0.778s44.029,61.502,44.508,94.565C1785.647,1513.821,1751.253,1525.116,1709.902,1533.239z"/>
				</g>
				<g>
					<path style="fill:#323657;" d="M1408.703,1682.247h38.119c0.867-5.371,1.811-10.877,2.798-16.502
						c6.463-36.399,14.96-77.525,19.493-117.904v-0.015c8.378-74.817,19.913-148.124,26.136-191.674
						c16.202-113.386,37.806-164.117,37.806-164.117c-10.323,3.082-124.217,56.91-124.217,56.91
						c1.017,31.342,2.543,64.974,5.206,100.953c0,0,2.513,87.908,7.57,171.283c1.72,11.938,2.588,24.146,1.63,36.638
						c-1.271,16.308-3.036,34.11-5.161,52.676c-0.03,0.255-0.045,0.494-0.075,0.703c-0.508,4.414-1.047,8.843-1.57,13.33
						c0,0.075-0.029,0.12-0.029,0.194c-1.631,13.479-3.441,27.243-5.356,41.022
						C1410.289,1671.251,1409.511,1676.756,1408.703,1682.247z"/>
				</g>
				<g>
					<path style="fill:#323657;" d="M1517.72,1556.817c8.662,20.436,38.509,70.897,38.509,70.897s21.603-5.296,53.379-13.524
						c2.095,18.028,4.204,34.993,6.224,51.555c0.673,5.535,1.347,11.025,1.989,16.502h113.356
						c-1.347-5.551-2.634-11.057-3.845-16.502c-6.928-30.699-11.789-59.259-12.492-80.099
						c76.014-21.708,150.518-46.033,149.365-57.673c-1.721-17.22-58.81-283.472-73.291-293.839
						c-8.348-5.999-70.314-27.962-100.715-39.944c-5.55-2.2-24.52-9.321-29.502-11.221c-6.447,7.181-50.896,56.236-66.604,241.566
						c-1.945,23.055,2.094,65.124,6.582,107.282C1554.657,1544.101,1516.239,1553.331,1517.72,1556.817z M1724.998,1490.677
						c4.578-36.922,9.769-74.069,13.523-87.069c0,0,12.822,25.866,11.819,63.806
						C1750.146,1475.073,1740.393,1482.928,1724.998,1490.677z"/>
				</g>
				<g>
					<path style="fill:#EEA987;" d="M1650.51,1181.174c0,0-11.535-21.797-8.348-83.688c0.882-17.145-90.063,40.662-90.063,40.662
						s0.313,5.909,0.509,13.884c0.104,3.321,0.164,6.956,0.164,10.696c0,1.033-0.015,2.064-0.015,3.097
						c-0.016,1.691-0.03,3.366-0.061,5.042c-0.045,2.079-0.119,4.114-0.224,6.074c-0.104,2.229-0.255,4.339-0.464,6.269
						c-0.374,3.74-2.573,10.337-3.366,12.147C1544.469,1204.977,1616.459,1205.53,1650.51,1181.174z"/>
				</g>
				<path style="fill:#569254;" d="M1574.265,1220.538l-16.761,22.518c0,0,9.819,13.15,27.258,3.443L1574.265,1220.538z"/>
				<path style="fill:#569254;" d="M1561.987,1243.971c0,0-61.407,149.979-48.305,340.485l19.366,35.15l21.838-29.935
					c0,0,3.525-253.013,20.955-346.301L1561.987,1243.971z"/>
				<path style="fill:#EEA987;" d="M1556.318,1199.544l17.946,20.994c0,0,28.801-5.58,37.258-20.624
					C1619.979,1184.87,1556.318,1199.544,1556.318,1199.544z"/>
				<path style="fill:#C4C1CC;" d="M1552.202,1181.169c0,0,2.084,16.004,22.063,39.369l-21.807,29.297l-11.802-60.775
					L1552.202,1181.169z"/>
				<path style="fill:#C4C1CC;" d="M1645.031,1161.918c0,0-41.646,47.106-70.767,58.62l13.545,33.498l66.46-73.317
					L1645.031,1161.918z"/>
				<g>
					<path style="fill:#323657;" d="M1216.909,1588.081c0,0,55.278-53.609,91.533-62.528c16.759-4.122,38.835-27.258,59.813-54.458
						c6.915-8.957,13.696-18.358,20.149-27.662c0.019-0.02,0.019-0.039,0.019-0.039c25.737-37.158,45.905-72.776,45.905-72.776
						s76.071-89.151,15.026-128.893c0,0-26.165-0.565-40.513,7.227c-14.755,8.013-46.23,73.699-51.567,85.335
						c-5.335,11.615-63.146,119.66-67.018,122.088c-3.873,2.427-10.322,11.312-33.453,23.766
						c-28.319,15.248-72.808,59.876-72.808,59.876L1216.909,1588.081z"/>
				</g>
				<path style="fill:#EFAA88;" d="M1482.252,1650.126c0,0,7.723-0.311,11.032-2.094c0,0,5.775-3.706,10.039-6.092
					c1.356-0.752,2.555-1.379,3.371-1.701c3.408-1.353,11.294-3.303,18.568-8.851c7.269-5.536,30.966-27.707,30.966-27.707
					l-15.315-23.544l-7.071-23.314c0,0-55.247,5.494-62.618,9.873c-0.718,0.433-1.412,0.885-2.029,1.36
					c-5.882,4.313-8.444,9.994-11.274,12.607c-1.032,0.967-10.655,11.267-10.117,15.445c0.74,5.8,3.606,9.52,7.204,11.279
					c0,0,1.95,11.293,7.786,16.339c0,0,1.464,10.476,10.51,14.686C1473.303,1638.413,1475.979,1648.874,1482.252,1650.126z"/>
				<path style="fill:#EEA886;" d="M1570.224,937.809c0,0-99.861-24.071-78.825,102.357
					c21.035,126.429,44.985,136.692,105.816,111.484s56.604-106.073,60.228-145.643S1602.166,939.654,1570.224,937.809z"/>
				<path style="fill:#EEA886;" d="M1622.686,1025.366c1.484-11.104,23.531-14.859,25.058,1.845
					c1.526,16.705-10.667,45.804-18.969,42.802C1620.472,1067.011,1620.64,1040.679,1622.686,1025.366z"/>
				<path style="fill:#16202E;" d="M1651.611,1070.638c0,0-2.003-39.766-16.496-41.219s-16.959,14.514-16.959,14.514l-14.694,2.551
					c0,0,5.142-34.753-9.259-41.049c-14.398-6.297-94.158,17.791-105.639,7.4c-11.48-10.39-4.971-80.944,16.205-90.302
					c21.176-9.356,79.585-30.165,121.727-0.731c0,0,33.231-3.296,37.76,23.551
					C1668.783,972.198,1660.922,1050.862,1651.611,1070.638z"/>
				<path style="fill:#323657;" d="M1514.997,1556.823l41.231,70.887c0,0,109.229-28.143,134.715-35.33l-58.26-69.344
					C1632.684,1523.036,1546.788,1542.66,1514.997,1556.823z"/>
				<path style="fill:#A77860;" d="M1552.474,1176.94h0.015c53.559-5.461,74.324-46.692,74.324-46.692
					c-33.691,33.393-74.04,32.479-74.04,32.479c0,1.033-0.015,2.064-0.015,3.097c-0.016,1.691-0.03,3.366-0.061,5.042
					C1552.652,1172.945,1552.578,1174.98,1552.474,1176.94z"/>
			</g>
			<polygon style="fill:#FFC955;" points="1474.371,1401.62 1503.501,1672.446 1120.092,1672.446 1090.963,1401.62 			"/>
			<rect x="1469.977" y="1648.081" style="fill:#FFC955;" width="64.035" height="24.365"/>
			
				<linearGradient id="SVGID_00000182517470017876236150000011491663206738290848_" gradientUnits="userSpaceOnUse" x1="230.6891" y1="1680.1353" x2="1848.0972" y2="1680.1353">
				<stop  offset="0" style="stop-color:#9A5CFF"/>
				<stop  offset="0.9948" style="stop-color:#4059BF"/>
			</linearGradient>
			
				<rect x="760.047" y="1671.885" style="fill:url(#SVGID_00000182517470017876236150000011491663206738290848_);" width="1042.084" height="16.501"/>
			<path style="fill:#CFA345;" d="M1318.522,1532.683c3.081,15.079-3.953,29.252-15.711,31.654
				c-11.759,2.403-23.789-7.873-26.87-22.953c-3.082-15.079,3.952-29.252,15.711-31.654
				C1303.41,1507.326,1315.44,1517.603,1318.522,1532.683z"/>
		</g>
		<g>
			<g>
				<path style="fill:#E0E0E0;" d="M850.796,1429.162H505.768c-16.579,0-30.02-13.439-30.02-30.019v-331.609
					c0-16.579,13.44-30.02,30.02-30.02h345.028c16.579,0,30.02,13.44,30.02,30.02v331.609
					C880.815,1415.723,867.375,1429.162,850.796,1429.162z"/>
			</g>
			<g>
				<g>
					<g>
						<g>
							<g>
								<g>
									<polygon style="fill:#377B93;" points="513.3,1384.011 510.492,1381.035 583.112,1312.515 656.608,1328.441 
										726.812,1248.383 788.039,1251.837 835.725,1186.062 839.037,1188.463 790.04,1256.048 728.572,1252.58 658.097,1332.949 
										584.352,1316.97 									"/>
								</g>
							</g>
						</g>
					</g>
					<g>
						<g>
							<g>
								<path style="fill:#E6E6E6;" d="M668.016,1328.387c1.275,5.889-2.465,11.696-8.355,12.972
									c-5.889,1.274-11.696-2.466-12.972-8.354c-1.275-5.889,2.466-11.696,8.354-12.972
									C660.933,1318.757,666.74,1322.497,668.016,1328.387z"/>
							</g>
						</g>
					</g>
					<g>
						<g>
							<g>
								<path style="fill:#377B93;" d="M660.095,1343.357c-6.982,1.512-13.893-2.938-15.404-9.921
									c-1.512-6.981,2.938-13.892,9.921-15.403c6.981-1.512,13.892,2.938,15.403,9.921
									C671.526,1334.936,667.076,1341.846,660.095,1343.357z M655.477,1322.031c-4.777,1.034-7.822,5.763-6.787,10.54
									c1.034,4.777,5.762,7.822,10.539,6.787c4.777-1.034,7.822-5.762,6.788-10.539S660.254,1320.997,655.477,1322.031z"/>
							</g>
						</g>
					</g>
					<g>
						<g>
							<g>
								<path style="fill:#E6E6E6;" d="M738.334,1248.861c1.275,5.89-2.465,11.697-8.354,12.972
									c-5.889,1.275-11.696-2.465-12.972-8.354c-1.275-5.89,2.465-11.697,8.354-12.972
									C731.251,1239.232,737.059,1242.973,738.334,1248.861z"/>
							</g>
						</g>
					</g>
					<g>
						<g>
							<g>
								<path style="fill:#377B93;" d="M730.413,1263.833c-6.982,1.512-13.893-2.938-15.404-9.921s2.939-13.893,9.921-15.404
									c6.981-1.512,13.892,2.938,15.403,9.921S737.394,1262.321,730.413,1263.833z M725.795,1242.507
									c-4.777,1.034-7.822,5.763-6.787,10.539c1.034,4.777,5.762,7.822,10.539,6.788c4.777-1.034,7.822-5.763,6.788-10.539
									C735.3,1244.518,730.572,1241.473,725.795,1242.507z"/>
							</g>
						</g>
					</g>
					<g>
						<g>
							<g>
								<path style="fill:#E6E6E6;" d="M799.113,1251.295c1.274,5.89-2.466,11.696-8.354,12.972
									c-5.889,1.275-11.696-2.465-12.972-8.354c-1.275-5.89,2.465-11.697,8.354-12.972
									C792.03,1241.666,797.838,1245.406,799.113,1251.295z"/>
							</g>
						</g>
					</g>
					<g>
						<g>
							<g>
								<path style="fill:#377B93;" d="M791.191,1266.267c-6.981,1.512-13.892-2.938-15.403-9.921
									c-1.512-6.982,2.939-13.893,9.92-15.404c6.982-1.512,13.893,2.938,15.404,9.921S798.174,1264.755,791.191,1266.267z
									 M786.574,1244.94c-4.777,1.034-7.822,5.762-6.788,10.539c1.034,4.777,5.763,7.822,10.54,6.788s7.822-5.763,6.787-10.539
									C796.079,1246.951,791.352,1243.906,786.574,1244.94z"/>
							</g>
						</g>
					</g>
					<g>
						<g>
							<g>
								<path style="fill:#E6E6E6;" d="M594.336,1313.442c1.275,5.89-2.465,11.697-8.353,12.973
									c-5.89,1.274-11.697-2.466-12.972-8.354c-1.275-5.89,2.465-11.696,8.354-12.972
									C587.254,1303.813,593.062,1307.554,594.336,1313.442z"/>
							</g>
						</g>
					</g>
					<g>
						<g>
							<g>
								<path style="fill:#377B93;" d="M586.415,1328.414c-6.981,1.512-13.892-2.938-15.404-9.921
									c-1.512-6.982,2.939-13.893,9.921-15.404c6.983-1.512,13.893,2.939,15.404,9.921
									C597.848,1319.992,593.398,1326.902,586.415,1328.414z M581.798,1307.088c-4.777,1.034-7.822,5.763-6.788,10.54
									c1.034,4.776,5.763,7.822,10.539,6.787c4.777-1.034,7.822-5.762,6.788-10.539
									C591.303,1309.099,586.574,1306.054,581.798,1307.088z"/>
							</g>
						</g>
					</g>
				</g>
				<g>
					<rect x="572.761" y="1356.307" style="fill:#FFFFFF;" width="44.664" height="8.601"/>
				</g>
				<g>
					<rect x="603.823" y="1268.045" style="fill:#FFFFFF;" width="44.664" height="8.601"/>
				</g>
				<g>
					<rect x="696.474" y="1329.551" style="fill:#FFFFFF;" width="44.664" height="8.601"/>
				</g>
				<g>
					<rect x="736.536" y="1208.762" style="fill:#FFFFFF;" width="44.664" height="8.601"/>
				</g>
				<g>
					<rect x="801.407" y="1280.735" style="fill:#FFFFFF;" width="44.663" height="8.601"/>
				</g>
			</g>
			<g>
				<g>
					<rect x="505.548" y="1067.447" style="fill:#4E8C63;" width="159.067" height="15.612"/>
				</g>
				<g>
					<rect x="505.548" y="1109.45" style="fill:#FFFFFF;" width="159.067" height="15.613"/>
				</g>
				<g>
					<rect x="505.548" y="1151.454" style="fill:#FFFFFF;" width="159.067" height="15.612"/>
				</g>
			</g>
			<g>
				<g>
					<rect x="697.08" y="1067.447" style="fill:#4E8C63;" width="26.552" height="15.612"/>
				</g>
				<g>
					<rect x="697.08" y="1109.45" style="fill:#FFFFFF;" width="26.552" height="15.613"/>
				</g>
				<g>
					<rect x="697.08" y="1151.454" style="fill:#FFFFFF;" width="26.552" height="15.612"/>
				</g>
			</g>
		</g>
		<g>
			
				<linearGradient id="SVGID_00000109723913217087105850000018078572485850551430_" gradientUnits="userSpaceOnUse" x1="507.2832" y1="1558.3618" x2="599.7227" y2="1558.3618">
				<stop  offset="0" style="stop-color:#FF9F55"/>
				<stop  offset="1" style="stop-color:#FFD255"/>
			</linearGradient>
			
				<rect x="507.283" y="1555.618" style="fill:url(#SVGID_00000109723913217087105850000018078572485850551430_);" width="92.439" height="5.487"/>
		</g>
		<g>
			
				<rect x="519.672" y="1575.387" transform="matrix(-1 -1.224647e-16 1.224647e-16 -1 1047.4434 3400.3271)" style="fill:#706865;" width="8.1" height="249.554"/>
		</g>
		<g>
			<rect x="585.255" y="1554.063" style="fill:#CCBDB7;" width="64.255" height="7.837"/>
		</g>
		<g>
			<rect x="605.217" y="1487.202" style="fill:#FFAB55;" width="24.332" height="73.903"/>
		</g>
		<g>
			<rect x="474.123" y="1561.197" style="fill:#B59074;" width="356.009" height="14.189"/>
		</g>
		<g>
			<path style="fill:#4E94F7;" d="M405.797,1475.314c0,0-3.895,54.604,6.775,61.14c6.684,4.093,33.332,17.901,32.541,20.49
				c-0.79,2.59-15.046,23.039-15.046,23.039s-51.188-33.708-52.838-44.33c-1.612-10.378,2.52-79.951,9.554-83.156
				c5.271-2.4,8.052-0.415,14.693,4.516C410.797,1463.933,405.797,1475.314,405.797,1475.314z"/>
		</g>
		<g>
			<g>
				<g>
					<path style="fill:#EAD8CF;" d="M499.087,1490.904l4.511-1.668c0,0-5.626-13.208-8.081-12.886c-2.83,0.37-6.36,1.303-6.36,1.303
						L499.087,1490.904z"/>
				</g>
			</g>
		</g>
		<g>
			<g>
				<g>
					<path style="fill:#DA9B5B;" d="M500.117,1493.184c-0.577-0.43-9.59-17.722-9.59-17.722l-19.258,2.617l10.406,20.48
						L500.117,1493.184z"/>
				</g>
			</g>
		</g>
		<g>
			<g>
				<g>
					<path style="fill:#424773;" d="M468.774,1790.867c0,0-1.591,11.048-1.79,12.708c-0.199,1.659-17.707-0.979-17.707-0.979
						l-1.418-13.152C447.859,1789.444,466.586,1789.308,468.774,1790.867z"/>
				</g>
			</g>
		</g>
		<g>
			<g>
				<g>
					<path style="fill:#292C47;" d="M467.171,1802.17c0,0,5.547,6.657,10.912,9.56c5.365,2.901,13.796,4.051,16.969,7.055
						c2.29,2.168,8.341,11.503-13.941,11.314c-22.283-0.188-33.026,1.318-35.414-2.26c-2.388-3.579,3.454-26.417,3.454-26.417
						S454.428,1803.321,467.171,1802.17z"/>
				</g>
			</g>
		</g>
		<g>
			<g>
				<g>
					<path style="fill:#424773;" d="M580.947,1790.972c0,0-1.592,11.049-1.791,12.708c-0.199,1.659-17.707-0.978-17.707-0.978
						l-1.418-13.153C560.031,1789.549,578.759,1789.413,580.947,1790.972z"/>
				</g>
			</g>
		</g>
		<g>
			<g>
				<g>
					<path style="fill:#292C47;" d="M579.343,1802.274c0,0,5.547,6.658,10.912,9.56c5.365,2.901,25.109,5.285,28.281,8.289
						c2.29,2.169,6.1,10.896-25.254,10.081c-22.275-0.58-33.026,1.318-35.414-2.261s3.454-26.417,3.454-26.417
						S566.295,1803.555,579.343,1802.274z"/>
				</g>
			</g>
		</g>
		<g>
			<g>
				<g>
					<path style="fill:#292C47;" d="M412.305,1600.017c0,0,63.652,10.771,78.029,13.029c14.376,2.257,92.328,21.654,102.076,27.565
						c7.76,4.704-4.069,117.7-6.833,160.811h-30.703l-2.227-129.319c-36.845,0.922-63.136-8.619-89.966-4.543
						c-26.83,4.074-49.198,9.866-66.247-13.002C396.435,1654.558,395.802,1605.012,412.305,1600.017z"/>
				</g>
			</g>
		</g>
		<g>
			<g>
				<g>
					<path style="fill:#292C47;" d="M475.044,1801.526l-29.921-1.85l-2.916-127.574c-15.862,0.396-21.299-0.609-34.135-2.166
						l-24.158-56.153c21.172,4.232,89.007,21.342,98.052,26.827C489.727,1645.317,477.808,1758.414,475.044,1801.526z"/>
				</g>
			</g>
		</g>
		<g>
			<g>
				<g>
					<path style="fill:#EEA886;" d="M441.605,1361.423c0,0,23.334-6.448,32.236,11.666c8.902,18.113,4.867,52.453-6.894,55.684
						c-11.76,3.23-28.671-0.489-33.553-11.764c-4.883-11.273-8.776-27.294-7.608-37.668
						C426.956,1368.968,435.41,1363.902,441.605,1361.423z"/>
				</g>
			</g>
		</g>
		<g>
			<g>
				<g>
					<path style="fill:#EEA886;" d="M460.852,1425.158c0,0-0.257,13.775,1.262,16.712c1.518,2.937-32.491,2.2-32.491,2.2
						s5.359-16.543,2.319-30.636C428.932,1399.484,460.852,1425.158,460.852,1425.158z"/>
				</g>
			</g>
		</g>
		<g>
			<g>
				<g>
					<path style="fill:#3A3F47;" d="M430.108,1408.218c0,0,1.818,3.697,10.622,3.1c8.804-0.597,20.414-11.217,24.151-12.166
						c3.737-0.948,3.96-3.076,3.96-3.076l1.978,3.517l3.829,0.582c0,0-2.602-10.644,3.067-14.392
						c5.67-3.748-2.553-33.935-31.259-26.653c0,0-21.908,4.012-22.202,16.245C423.962,1387.607,425.855,1401.738,430.108,1408.218z"
						/>
				</g>
			</g>
		</g>
		<g>
			<g>
				<g>
					<path style="fill:#E2D2CA;" d="M463.901,1441.517c0,0-0.095-5.611-2.639-6.149c-2.543-0.538-26.734-3.865-29.856-2.638
						l-1.339,7.409C430.067,1440.139,436.082,1443.841,463.901,1441.517z"/>
				</g>
			</g>
		</g>
		<g>
			<g>
				<g>
					<path style="fill:#EEA886;" d="M470.901,1393.567c-0.652-4.6-5.882-9.882-8.876-2.719c-2.994,7.164,2.022,17.596,5.381,17.036
						C470.766,1407.326,471.787,1399.808,470.901,1393.567z"/>
				</g>
			</g>
		</g>
		<g>
			<g>
				<g>
					<path style="fill:#323657;" d="M565.227,1507.814c-0.012-0.005-0.025-0.007-0.042-0.003
						C565.359,1507.888,565.385,1507.895,565.227,1507.814z"/>
				</g>
			</g>
		</g>
		<g>
			<g>
				<g>
					<path style="fill:#3A3F47;" d="M434.8,1364.708c0,0-28.45-1.34-4.966,43.074L434.8,1364.708z"/>
				</g>
			</g>
		</g>
		<g>
			<g>
				<polygon style="fill:#918783;" points="371.41,1816.659 373.526,1822.612 462.95,1794.905 458.664,1782.85 				"/>
			</g>
		</g>
		<g>
			<g>
				<rect x="455.853" y="1693.442" style="fill:#918783;" width="10.164" height="97.221"/>
			</g>
		</g>
		<g>
			<g>
				<rect x="430.962" y="1688.276" style="fill:#5E5854;" width="59.947" height="5.728"/>
			</g>
		</g>
		<g>
			<g>
				<polygon style="fill:#918783;" points="551.247,1816.659 549.13,1822.612 459.707,1794.905 463.637,1782.093 				"/>
			</g>
		</g>
		<g>
			<g>
				<polygon style="fill:#918783;" points="488.242,1821.976 488.242,1828.901 459.707,1794.905 463.637,1782.093 				"/>
			</g>
		</g>
		<g>
			<g>
				<path style="fill:#BFB2AC;" d="M559.604,1824.94c0,4.615-3.741,8.356-8.356,8.356c-4.616,0-8.357-3.741-8.357-8.356
					s3.741-8.357,8.357-8.357C555.862,1816.583,559.604,1820.325,559.604,1824.94z"/>
			</g>
		</g>
		<g>
			<g>
				<path style="fill:#BFB2AC;" d="M488.952,1824.94c0,4.615-3.742,8.356-8.358,8.356c-4.615,0-8.357-3.741-8.357-8.356
					s3.742-8.357,8.357-8.357C485.21,1816.583,488.952,1820.325,488.952,1824.94z"/>
			</g>
		</g>
		<g>
			<g>
				<path style="fill:#BFB2AC;" d="M379.768,1824.94c0,4.615-3.742,8.356-8.357,8.356c-4.615,0-8.357-3.741-8.357-8.356
					s3.742-8.357,8.357-8.357C376.025,1816.583,379.768,1820.325,379.768,1824.94z"/>
			</g>
		</g>
		<g>
			<path style="fill:#E2D2CA;" d="M521.626,1688.276H401.031c-5.917,0-10.713-4.797-10.713-10.713v-0.275
				c0-5.916,4.796-10.712,10.713-10.712h120.595c5.916,0,10.712,4.796,10.712,10.712v0.275
				C532.338,1683.479,527.542,1688.276,521.626,1688.276z"/>
		</g>
		<g>
			<rect x="776.483" y="1575.387" style="fill:#706865;" width="8.101" height="249.554"/>
		</g>
		<g>
			
				<linearGradient id="SVGID_00000011000849887350104430000018205990325767895975_" gradientUnits="userSpaceOnUse" x1="512.3301" y1="1448.6929" x2="722.4346" y2="1448.6929">
				<stop  offset="0" style="stop-color:#FF9F55"/>
				<stop  offset="1" style="stop-color:#FFD255"/>
			</linearGradient>
			<path style="fill:url(#SVGID_00000011000849887350104430000018205990325767895975_);" d="M711.748,1522.802H523.017
				c-5.901,0-10.687-4.784-10.687-10.687v-126.845c0-5.902,4.785-10.687,10.687-10.687h188.732c5.902,0,10.686,4.784,10.686,10.687
				v126.845C722.435,1518.018,717.65,1522.802,711.748,1522.802z"/>
		</g>
		<g>
			<rect x="520.559" y="1382.596" style="fill:#F5F7FF;" width="193.648" height="116.979"/>
		</g>
		<g>
			<rect x="520.559" y="1382.596" style="fill:#CECFD6;" width="193.648" height="9.309"/>
		</g>
		<g>
			<path style="fill:#CECFD6;" d="M565.054,1407.566h-35.446c-1.973,0-3.572-1.6-3.572-3.572v-1.514c0-1.973,1.6-3.572,3.572-3.572
				h35.446c1.973,0,3.572,1.6,3.572,3.572v1.514C568.626,1405.967,567.026,1407.566,565.054,1407.566z"/>
		</g>
		<g>
			<path style="fill:#CECFD6;" d="M561.248,1494.759h-27.835c-4.074,0-7.378-3.304-7.378-7.378v-66.634
				c0-4.074,3.304-7.378,7.378-7.378h27.835c4.074,0,7.378,3.304,7.378,7.378v66.634
				C568.626,1491.455,565.322,1494.759,561.248,1494.759z"/>
		</g>
		<g>
			<path style="fill:#2E436E;" d="M660.878,1561.387v-2.638c0,0-3.708-16.405-29.937-16.405s-25.698,19.043-25.698,19.043H660.878z"
				/>
		</g>
		<g>
			<g>
				<path style="fill:#EEA886;" d="M604.926,1544.781c0,0,5.698-0.442,7.785-1.702c2.088-1.26,14.577-9.659,17.511-8.314
					c2.935,1.345,22.458,7.324,21.779,10.18c-0.678,2.855-2.483,2.58-3.861,2.074c-1.377-0.505-15.554-3.48-16.805-2.979
					c0,0,13.925,5.08,13.98,8.786c0.057,3.706-2.914,4.61-4.234,6.012c-1.32,1.401-2.906,4.882-6.494,5.149
					c-3.589,0.268-21.099-5.826-24.704-6.104c-3.604-0.277-10.276,0.223-10.729-0.364
					C598.7,1556.934,604.926,1544.781,604.926,1544.781z"/>
			</g>
		</g>
		<g>
			<g>
				<g>
					<path style="fill:#4E94F7;" d="M501.191,1449.294c-18.167-3.193-37.29-7.777-37.29-7.777l-33.835-1.379
						c0,0-31.053,6.836-43.283,12.359c-1.16,0.523-1.165,27.703-4.349,34.83l10.14,21.391c0,0,5.857,42.373,7.072,61.218
						c0.559,8.651-1.577,83.608-1.577,83.608s3.039,1.5,26.132,4.045c23.092,2.546,80.789-0.92,81.152-3.646
						c0.365-2.729-11.174-101.559-11.684-106.678c-0.784-7.855,2.27-44.152,2.27-44.152c4.351,5.844,15.442,32.237,27.003,44.794
						c6.802,7.388,40.477,11.917,46.823,12.128c13.817,0.461,39.023,3.212,39.76,1.868c0.589-0.807,2.196-22.373,0.616-22.899
						c-1.384-0.462-48.188-3.156-60.18-9.519c-4.387-2.327-17.501-30.925-17.501-30.925S511.214,1453.798,501.191,1449.294z"/>
				</g>
			</g>
		</g>
		<g>
			<path style="fill:#E2D2CA;" d="M434.513,1651.378h-56.802c-11.36,0-20.569-9.209-20.569-20.568v-94.509
				c0-11.359,9.209-20.568,20.569-20.568h56.802c11.359,0,20.568,9.209,20.568,20.568v94.509
				C455.081,1642.169,445.872,1651.378,434.513,1651.378z"/>
		</g>
		<g>
			<path style="fill:#E2D2CA;" d="M437.727,1682.875c-14.438,0-26.149-4.85-34.813-14.414
				c-19.578-21.615-16.061-59.612-15.901-61.22c0.298-2.995,2.971-5.184,5.96-4.885c2.994,0.297,5.181,2.963,4.886,5.956
				c-0.042,0.434-3.161,34.876,13.154,52.856c6.6,7.272,15.338,10.809,26.714,10.809c3.009,0,5.448,2.439,5.448,5.448
				C443.175,1680.436,440.735,1682.875,437.727,1682.875z"/>
		</g>
		<g>
			<path style="fill:#EEF0F7;" d="M581.172,1444.153c0,8.873,3.19,16.998,8.485,23.295c1.239,1.473,2.593,2.845,4.047,4.103
				c0.415,0.359,0.839,0.71,1.271,1.049c0.488,0.385,0.985,0.757,1.492,1.117c4.766,3.378,10.385,5.632,16.469,6.376
				c1.07,0.133,2.158,0.217,3.258,0.252c0.393,0.014,0.79,0.02,1.188,0.02c1.172,0,2.331-0.057,3.473-0.165
				c1.276-0.121,2.534-0.309,3.769-0.561c5.485-1.112,10.521-3.466,14.801-6.755c1.292-0.991,2.512-2.065,3.656-3.219
				c0.223-0.225,0.443-0.452,0.658-0.683c0.811-0.857,1.577-1.755,2.299-2.689c4.738-6.121,7.557-13.802,7.557-22.14
				c0-19.999-16.213-36.212-36.212-36.212C597.384,1407.941,581.172,1424.154,581.172,1444.153z"/>
			<g>
				<g>
					<path style="fill:#D9C7C1;" d="M593.795,1464.135l2.672,9.582c4.766,3.378,10.385,5.632,16.469,6.376
						c1.07,0.133,2.158,0.217,3.258,0.252c0.393,0.014,0.79,0.02,1.188,0.02c1.172,0,2.331-0.057,3.473-0.165
						c1.276-0.121,2.534-0.309,3.769-0.561c5.485-1.112,10.521-3.466,14.801-6.755c0.513-3.168,1.062-6.675,1.546-9.955
						c-2.661-0.99-11.132-3.871-16.478-5.679c-0.075-0.025-0.15-0.05-0.223-0.074c-0.118-0.041-0.234-0.08-0.348-0.118
						c-0.316-0.106-0.619-0.209-0.906-0.307c-0.294-0.099-0.572-0.192-0.832-0.282c-1.096-0.368-1.867-0.628-2.144-0.72
						c-0.001-0.002-0.001-0.002-0.003-0.002c-0.071-0.023-0.108-0.037-0.108-0.037l-0.063,0.004l-7.188,0.539l-1.205,0.089
						l-0.376,0.028c0,0-0.056,0.013-0.164,0.041c-0.433,0.11-1.693,0.441-3.361,0.949c-0.002,0-0.005,0.002-0.007,0.002
						C603.306,1458.665,596.399,1461.14,593.795,1464.135z"/>
				</g>
				<g>
					<path style="fill:#EEA987;" d="M615.497,1426.173c0,0-8.621,1.454-7.159,14.951c1.463,13.497,9.072,12.307,9.582,12.287
						c0.509-0.019,7.654,0.163,8.031-16.34C625.951,1437.071,626.061,1424.87,615.497,1426.173z"/>
				</g>
				<g>
					<path style="fill:#EEA987;" d="M611.72,1449.499c0,0,0.298,5.555-0.228,6.764c-0.524,1.209,6.923,5.034,11.551,0.677
						c0,0-0.937-6.071-0.646-8.216C622.688,1446.58,611.72,1449.499,611.72,1449.499z"/>
				</g>
				<g>
					<path style="fill:#EEA987;" d="M608.163,1437.31c0,0-0.956-1-1.292,0.026s1.528,5.575,1.411,5.781c0,0,0.178,0.396,0.402,0.175
						C608.909,1443.07,608.163,1437.31,608.163,1437.31z"/>
				</g>
				<g>
					<path style="fill:#EEA987;" d="M625.852,1436.945c0,0,0.915-1.038,1.293-0.026c0.377,1.012-1.002,5.555-1.173,5.835
						c0,0-0.297,0.466-0.53,0.255C625.207,1442.797,625.852,1436.945,625.852,1436.945z"/>
				</g>
				<g>
					<path style="fill:#E8734D;" d="M607.612,1436.162c0.297,1.847,0.577,3.22,0.577,3.22l1.255,1.639c0,0-0.074-3.623,0.117-4.192
						c0.073-0.216,0.158-0.598,0.246-1.012c0.144-0.683,0.291-1.453,0.393-1.71c0.161-0.41,7.389-2.521,13.826,0.442
						c0,0-0.055,0.558-0.051,1.18c0.002,0.723,0.082,1.533,0.413,1.655c0.618,0.226,0.359,4.24,0.359,4.24l1.004-1.158
						c0,0,0.29-2.098,0.576-4.508c0,0,0.001-0.006,0.002-0.018c0.064-0.562,0.131-1.14,0.193-1.713
						c0.145-2.425-0.096-6.827-3.253-9.413c-2.13-0.912-5.531-1.688-11.201,0.049c0,0-1.301,0.087-1.665,0.438
						C606.873,1429.187,607.612,1436.162,607.612,1436.162z"/>
				</g>
				<path style="fill:#C78D71;" d="M621.806,1451.607c0,0-1.376,1.911-4.572,1.839c-3.197-0.073-4.585-1.739-4.585-1.739
					s1.514,3.165,4.6,3.132C620.335,1454.806,621.806,1451.607,621.806,1451.607z"/>
				<path style="fill:#EEA987;" d="M623.921,1457.057c0,0-2.31,4.022-6.693,4.401c-2.781,0.24-5.188-3.284-6.317-5.015
					C610.91,1456.443,617.138,1453.778,623.921,1457.057z"/>
				<path style="fill:#EDDAD3;" d="M611.71,1455.171c0,0,1.763,2.31,5.517,4.78l-2.335,3.598l-3.982-7.105L611.71,1455.171z"/>
				<path style="fill:#EDDAD3;" d="M622.867,1455.71c0,0-2.243,2.811-5.64,4.241l2.563,3.706l4.479-6.482L622.867,1455.71z"/>
				<path style="fill:#5073AB;" d="M617.227,1459.951l-2.001,3.045c0,0,2.101,1.188,4.054-0.075L617.227,1459.951z"/>
				<path style="fill:#323657;" d="M591.483,1463.567c0,0,0.019,0.069,0.056,0.2c0.221,0.781,1.065,3.787,2.165,7.783
					c0.415,0.359,0.839,0.71,1.271,1.049c0.488,0.385,0.985,0.757,1.492,1.117c4.766,3.378,10.385,5.632,16.469,6.376
					c-0.537-12.534-2.025-23.65-2.025-23.65c-1.174,0.309-2.288,0.615-3.341,0.918c-0.002,0-0.005,0.002-0.007,0.002
					c-9.188,2.638-13.849,4.951-15.438,5.83c-0.013,0.006-0.024,0.013-0.035,0.019
					C591.676,1463.442,591.483,1463.567,591.483,1463.567z"/>
				<path style="fill:#323657;" d="M624.623,1479.639c5.485-1.112,10.521-3.466,14.801-6.755c1.292-0.991,2.512-2.065,3.656-3.219
					c0.223-0.225,0.443-0.452,0.658-0.683c0.633-2.691,1.056-4.448,1.082-4.562l0.002-0.006c0,0-4.481-2.944-20.33-7.174
					c0,0,0,0.004,0,0.009C624.492,1457.613,624.482,1467.781,624.623,1479.639z"/>
				<path style="fill:#5073AB;" d="M616.081,1463.331c0.147,3.301,0.162,9.706,0.112,17.014c0.393,0.014,0.79,0.02,1.188,0.02
					c1.172,0,2.331-0.057,3.473-0.165c-0.697-9.013-1.871-14.648-2.405-16.878c-0.176-0.73-0.282-1.096-0.282-1.096l-2.126,0.352
					C616.057,1462.808,616.069,1463.058,616.081,1463.331z"/>
				<g>
					<path style="fill:#323657;" d="M589.657,1467.448c1.239,1.473,2.593,2.845,4.047,4.103c0.415,0.359,0.839,0.71,1.271,1.049
						l-2.849-9.407l-0.002-0.004c-0.011,0.008-0.022,0.014-0.033,0.022c-0.174,0.114-0.357,0.301-0.552,0.557
						C590.981,1464.499,590.341,1465.783,589.657,1467.448z"/>
				</g>
				<g>
					<path style="fill:#323657;" d="M643.08,1469.665c0.223-0.225,0.443-0.452,0.658-0.683c0.811-0.857,1.577-1.755,2.299-2.689
						c-0.409-0.978-0.817-1.634-1.215-1.878l-0.002,0.006L643.08,1469.665z"/>
				</g>
			</g>
		</g>
		<g>
			<g>
				<g>
					<g>
						<path style="fill:#EEA886;" d="M989.805,1378.897c0,0-2.102,3.444-2.364,6.256c-0.209,2.225-2.08,5.55-2.89,7.387
							c-0.811,1.837-3.417,10.151-3.511,12.313c-0.038,0.884,1.936,6.46,1.655,8.243c-0.279,1.783-1.3,5.316,0.302,5.551
							c1.602,0.235,3.417-2.662,3.417-2.662s-0.152,1.643,1.203,2.27c2.635,1.219,4.029,0.146,4.029,0.146s0.972,1.806,2.191,2.049
							c2.69,0.535,4.008-0.542,4.008-0.542s1.185,1.013,3.043,0.977c2.378-0.045,3.377-2.1,3.377-2.1s3.011,0.609,3.884-0.796
							c0.873-1.404,0.723-2.902,1.084-4.176c0.362-1.272,0.088-12.768-3.817-21.044c-3.904-8.277,0.995-16.35,0.995-16.35
							L989.805,1378.897z"/>
					</g>
				</g>
			</g>
			<g>
				<g>
					<path style="fill:#DB9C7C;" d="M985.99,1414.908c0,0-0.267-10.314,2.447-12.51c2.714-2.196,3.023,1.527,3.023,1.527
						s-0.368-3.679,2.598-4.176c2.967-0.497,3.091,3.873,3.091,3.873s0.486-2.837,3.603-2.254c3.116,0.583,2.374,4.203,2.374,4.203
						s2.976-3.55,4.906-0.14c3.26,5.757,0.444,12.601,0.444,12.601s-1.068,1.876-4.034,1.112c0,0-2.101,4.097-6.536,1.225
						c0,0-4.688,2.449-6.343-1.558C991.563,1418.813,986.25,1420.676,985.99,1414.908z"/>
				</g>
			</g>
			<path style="fill:#FFC955;" d="M954.818,1230.324c0,0,17.655,58.847,23.621,80.553c1.871,6.809,6.398,71.82,7.198,74.438
				c0.799,2.618,23.194,6.203,23.194,6.203s-2.713-81.33-2.967-85.766c-0.253-4.437-24.71-95.26-31.823-98.5
				c-5.328-2.427-8.142-0.42-14.856,4.566C949.762,1218.815,954.818,1230.324,954.818,1230.324z"/>
			<path style="fill:#EFAA88;" d="M735.942,1136.647c0,0,0.386,2.286,1.042,3.203c0,0,1.322,1.578,2.194,2.756
				c0.275,0.375,0.508,0.708,0.635,0.938c0.532,0.963,1.411,3.235,3.339,5.188c1.924,1.952,9.421,8.161,9.421,8.161l6.423-5.452
				l6.669-2.989c0,0-3.734-16.229-5.317-18.257c-0.156-0.197-0.316-0.387-0.482-0.552c-1.507-1.587-3.295-2.133-4.18-2.876
				c-0.327-0.271-3.758-2.742-4.98-2.423c-1.697,0.44-2.695,1.435-3.082,2.571c0,0-3.286,1.01-4.566,2.938
				c0,0-3.061,0.834-3.97,3.686C739.088,1133.54,736.077,1134.734,735.942,1136.647z"/>
			<g>
				<g>
					<path style="fill:#424773;" d="M969.144,1632.116c0,0,1.609,11.172,1.81,12.85s17.904-0.988,17.904-0.988l1.434-13.3
						C990.292,1630.678,971.357,1630.54,969.144,1632.116z"/>
				</g>
			</g>
			<g>
				<g>
					<path style="fill:#292C47;" d="M970.766,1643.546c0,0-5.608,6.73-11.033,9.665s-13.95,4.097-17.158,7.134
						c-2.315,2.192-8.434,11.631,14.098,11.44c22.53-0.19,33.394,1.333,35.808-2.286c2.414-3.618-3.493-26.71-3.493-26.71
						S983.65,1644.709,970.766,1643.546z"/>
				</g>
			</g>
			<g>
				<g>
					<path style="fill:#424773;" d="M842.301,1632.116c0,0,1.609,11.172,1.811,12.85c0.201,1.678,17.904-0.988,17.904-0.988
						l1.434-13.3C863.449,1630.678,844.514,1630.54,842.301,1632.116z"/>
				</g>
			</g>
			<g>
				<g>
					<path style="fill:#292C47;" d="M843.923,1643.546c0,0-5.608,6.73-11.033,9.665c-5.426,2.935-25.389,5.345-28.597,8.382
						c-2.316,2.191-6.166,11.018,25.535,10.192c22.523-0.587,33.395,1.333,35.809-2.286c2.414-3.618-3.493-26.71-3.493-26.71
						S857.116,1644.84,843.923,1643.546z"/>
				</g>
			</g>
			<g>
				<g>
					<path style="fill:#292C47;" d="M954.484,1345.063c0,0,16.634,26.428,15.394,50.316c-1.241,23.89,6.031,49.972,8.529,74.927
						c2.786,27.821,14.187,93.684,14.6,108.565c0.414,14.882-1.769,62.402-1.769,62.402l-22.82,0.521
						c0,0-19.166-115.145-24.13-126.893c-4.964-11.749-29.58-95.508-30.407-104.907
						C913.053,1400.597,954.484,1345.063,954.484,1345.063z"/>
				</g>
			</g>
			<g>
				<g>
					<path style="fill:#292C47;" d="M866.92,1348.644c0,0-12.535,65.477-14.189,80.098c-1.655,14.621-2.758,70.757-3.586,79.896
						c-0.827,9.139-7.727,119.308-9.928,133.159h29.175c0,0,22.396-80.289,22.396-118.276c0-37.988,17.302-82.585,28.47-107.649
						c11.169-25.063,36.733-25.657,43.599-72.16C962.856,1343.71,876.216,1333.895,866.92,1348.644z"/>
				</g>
			</g>
			<g>
				<g>
					<path style="fill:#EEA886;" d="M926.727,1122.872c0,0-22.327-8.34-32.622,8.656c-10.294,16.995-9.302,51.02,1.952,55.204
						c11.254,4.184,28.159,1.996,33.921-8.639c5.762-10.635,10.964-26.009,10.714-36.283S932.59,1125.838,926.727,1122.872z"/>
				</g>
			</g>
			<g>
				<g>
					<path style="fill:#EEA886;" d="M898.481,1187.511c0,0,0.93,6.027-0.607,8.997c-1.535,2.97,28.926,3.047,28.926,3.047
						s2.474-16.151,7.161-29.799C938.648,1156.109,898.481,1187.511,898.481,1187.511z"/>
				</g>
			</g>
			<g>
				<g>
					<path style="fill:#16202E;" d="M933.961,1169.756c0,0-2.102,3.469-10.684,2.123c-8.582-1.346-19.051-12.764-22.634-14.017
						c-3.584-1.254-3.618-3.359-3.618-3.359l-2.243,3.277l-3.806,0.24c0,0,3.472-10.213-1.766-14.378
						c-5.236-4.166,5.435-33.059,32.958-23.439c0,0,21.139,5.827,20.37,17.849C941.769,1150.074,938.691,1163.769,933.961,1169.756z
						"/>
				</g>
			</g>
			<g>
				<g>
					<path style="fill:#E2D2CA;" d="M896.066,1196.15c0,0,0.096-5.674,2.668-6.218c2.571-0.544,28.387-3.025,31.543-1.785v6.609
						C930.277,1194.757,924.195,1198.5,896.066,1196.15z"/>
				</g>
			</g>
			<g>
				<g>
					<path style="fill:#EEA886;" d="M897.594,1150.131c0.48-2.017,5.608-7.778,7.572-1.608c1.964,6.17-2.967,14.469-5.717,13.758
						C896.699,1161.57,896.373,1155.243,897.594,1150.131z"/>
				</g>
			</g>
			<g>
				<g>
					<path style="fill:#FFC955;" d="M853.369,1204.741c17.699-2.332,42.697-8.592,42.697-8.592l34.212-1.394
						c0,0,31.398,6.912,43.764,12.497c1.173,0.529,1.179,28.012,4.398,35.218l-10.252,21.629c0,0-5.923,42.844-7.151,61.898
						c-0.564,8.747,12.214,82.023,12.214,82.023s-13.692,4.032-37.041,6.605c-23.35,2.573-81.688-0.931-82.057-3.688
						c-0.368-2.759,11.299-102.688,11.815-107.864c0.792-7.942-2.738-50.149-2.738-50.149c-5.391-4.182-52.725-26.153-65.638-37.603
						c-3.456-3.064-18.042-17.269-22.188-22.172c-14.682-17.362-26.72-32.256-28.184-35.466
						c-1.664-1.828,15.953-11.404,17.552-11.937c1.398-0.467,21.245,25.25,28.885,33.525c3.406,3.688,17.565,13.988,17.565,13.988
						S842.297,1205.378,853.369,1204.741z"/>
				</g>
			</g>
			<g>
				<g>
					<path style="fill:#16202E;" d="M933.086,1124.878c0,0,28.469,2.228,0.875,44.878L933.086,1124.878z"/>
				</g>
			</g>
			<polygon style="fill:#DFE1E8;" points="740.253,1124.44 737.917,1120.878 742.218,1121.439 			"/>
		</g>
		<path style="fill:#4CA1F4;" d="M1723.615,1138.036h53.158c9.666,0,17.502-7.836,17.502-17.502v-53.158
			c0-9.666-7.836-17.502-17.502-17.502h-53.158c-9.666,0-17.503,7.836-17.503,17.502v53.158
			C1706.112,1130.2,1713.949,1138.036,1723.615,1138.036z"/>
		<g style="opacity:0.69;">
			<path style="opacity:0.72;fill:#D9D9D9;" d="M2123.209,960.487h-286.854c-5.027,0-9.104-4.075-9.104-9.102v-9.176
				c0-5.026,4.076-9.103,9.104-9.103h286.854c5.026,0,9.102,4.076,9.102,9.103v9.176
				C2132.311,956.412,2128.235,960.487,2123.209,960.487z"/>
			<path style="opacity:0.72;fill:#D9D9D9;" d="M2165.738,1004.756h-329.383c-5.027,0-9.104-4.076-9.104-9.103v-9.176
				c0-5.027,4.076-9.102,9.104-9.102h329.383c5.027,0,9.104,4.075,9.104,9.102v9.176
				C2174.842,1000.68,2170.766,1004.756,2165.738,1004.756z"/>
		</g>
		<path style="fill:#4CA1F4;" d="M1723.615,1013.013h53.158c9.666,0,17.502-7.836,17.502-17.503v-53.157
			c0-9.666-7.836-17.503-17.502-17.503h-53.158c-9.666,0-17.503,7.837-17.503,17.503v53.157
			C1706.112,1005.177,1713.949,1013.013,1723.615,1013.013z"/>
		<g style="opacity:0.69;">
			<path style="opacity:0.72;fill:#D9D9D9;" d="M2048.648,1085.512h-213.504c-4.359,0-7.893-3.533-7.893-7.892v-11.598
				c0-4.358,3.533-7.892,7.893-7.892h213.504c4.357,0,7.891,3.533,7.891,7.892v11.598
				C2056.539,1081.979,2053.006,1085.512,2048.648,1085.512z"/>
			<path style="opacity:0.72;fill:#D9D9D9;" d="M2101.074,1129.779h-265.622c-4.528,0-8.2-3.671-8.2-8.199v-10.981
				c0-4.528,3.672-8.199,8.2-8.199h265.622c4.528,0,8.199,3.671,8.199,8.199v10.981
				C2109.273,1126.108,2105.603,1129.779,2101.074,1129.779z"/>
		</g>
		<g>
			<g>
				<g>
					<g>
						<g>
							<path style="fill:#FFFFFF;" d="M1747.186,1115.263l-24.465-21.257c-2.007-1.743-2.22-4.783-0.477-6.789
								s4.782-2.219,6.789-0.477l17.3,15.032l24.59-27.519c1.771-1.982,4.813-2.153,6.795-0.382
								c1.981,1.771,2.152,4.813,0.382,6.794L1747.186,1115.263z"/>
						</g>
					</g>
				</g>
			</g>
		</g>
		<g>
			<path style="fill:#FFFFFF;" d="M1748.553,979.681l-0.15-1.939c-0.447-4.028,0.896-8.429,4.625-12.903
				c3.355-3.953,5.221-6.862,5.221-10.219c0-3.804-2.387-6.34-7.086-6.414c-2.684,0-5.668,0.896-7.533,2.313l-1.789-4.699
				c2.461-1.79,6.713-2.983,10.666-2.983c8.576,0,12.455,5.296,12.455,10.964c0,5.072-2.834,8.727-6.414,12.979
				c-3.281,3.878-4.475,7.16-4.252,10.964l0.074,1.939H1748.553z M1746.912,990.123c0-2.76,1.863-4.699,4.475-4.699
				c2.609,0,4.4,1.939,4.4,4.699c0,2.61-1.715,4.624-4.475,4.624C1748.701,994.747,1746.912,992.733,1746.912,990.123z"/>
		</g>
	</g>
</g>
</svg>
