<?xml version="1.0" encoding="utf-8"?>
<!-- Generator: Adobe Illustrator 27.5.0, SVG Export Plug-In . SVG Version: 6.00 Build 0)  -->
<svg version="1.1" id="Capa_1" xmlns="http://www.w3.org/2000/svg" xmlns:xlink="http://www.w3.org/1999/xlink" x="0px" y="0px"
	 viewBox="0 0 507.536 367.44" style="enable-background:new 0 0 507.536 367.44;" xml:space="preserve">
<rect style="fill:#F5825E;" width="507.536" height="367.44"/>
<g>
	<g>
		
			<ellipse style="fill:none;stroke:#FFFFFF;stroke-width:3;stroke-linecap:round;stroke-linejoin:round;stroke-dasharray:0.2492,7.9758;" cx="253.767" cy="175.689" rx="130.976" ry="120.238"/>
	</g>
	<path style="fill:#E0C1A2;" d="M462.547,307.146c0,13.509-90.16,24.461-201.382,24.461c-111.219,0-201.38-10.952-201.38-24.461
		c0-13.51,90.161-24.462,201.38-24.462C372.387,282.683,462.547,293.635,462.547,307.146z"/>
	<g>
		<g>
			<g>
				<path style="fill:#2C295B;" d="M366.854,305.947c0,3.345-2.715,6.058-6.059,6.058H146.74c-3.345,0-6.059-2.712-6.059-6.058
					v-153.79c0-3.346,2.714-6.059,6.059-6.059h214.056c3.344,0,6.059,2.713,6.059,6.059V305.947z"/>
				<rect x="145.77" y="155.691" style="fill:#00B1DE;" width="215.994" height="143.378"/>
			</g>
			<path style="fill:#ABDFF9;" d="M272.688,305.632c0,0.837-0.678,1.513-1.513,1.513h-34.815c-0.836,0-1.513-0.676-1.513-1.513l0,0
				c0-0.836,0.677-1.515,1.513-1.515h34.815C272.01,304.117,272.688,304.795,272.688,305.632L272.688,305.632z"/>
			<path style="fill:#ABDFF9;" d="M265.38,151.315c0,0.792-0.643,1.429-1.431,1.429h-20.364c-0.789,0-1.429-0.638-1.429-1.429l0,0
				c0-0.79,0.64-1.43,1.429-1.43h20.364C264.737,149.885,265.38,150.524,265.38,151.315L265.38,151.315z"/>
		</g>
		<g style="opacity:0.3;">
			<polygon style="fill:#ABDFF9;" points="359.734,155.691 333.539,155.691 179.669,299.069 208.674,299.069 			"/>
			<path style="fill:#ABDFF9;" d="M322.706,155.691h-35.657c0,0-141.146,126.712-141.278,126.712v16.666h20.387L322.706,155.691z"/>
		</g>
	</g>
	<g>
		<path style="fill:#2D419A;" d="M118.126,306.88c0,0.587-0.476,1.063-1.063,1.063H75.341c-0.587,0-1.063-0.476-1.063-1.063
			l-2.126-50.491c0-0.588,0.476-1.064,1.063-1.064h45.974c0.588,0,1.064,0.476,1.064,1.064L118.126,306.88z"/>
		<path style="fill:#ABDFF9;" d="M69.111,211.956c0,0-4.333,4.776-13.041-5.083c0,0,11.331-2.238,13.298,4.423L69.111,211.956z"/>
		<path style="fill:#ABDFF9;" d="M69.59,211.278c0,0,6.448,0.072,5.144-13.017c0,0-9.348,6.784-5.803,12.756L69.59,211.278z"/>
		<path style="fill:#00B1DE;" d="M95.638,180.385c0,0-5.916,2.565-9.786-10.006c0,0,11.247,2.631,10.293,9.511L95.638,180.385z"/>
		<path style="fill:#00B1DE;" d="M96.731,179.566c0,0,5.846,2.723,10.053-9.739c0,0-11.313,2.328-10.545,9.23L96.731,179.566z"/>
		<path style="fill:#00B1DE;" d="M95.479,190.98c0,0-6.293,2.729-10.408-10.641c0,0,11.96,2.798,10.946,10.115L95.479,190.98z"/>
		<path style="fill:#00B1DE;" d="M96.642,190.11c0,0,6.217,2.895,10.691-10.358c0,0-12.031,2.476-11.215,9.816L96.642,190.11z"/>
		<path style="fill:#00B1DE;" d="M95.278,203.018c0,0-6.957,3.018-11.508-11.767c0,0,13.226,3.094,12.104,11.185L95.278,203.018z"/>
		<path style="fill:#00B1DE;" d="M96.565,202.056c0,0,6.874,3.202,11.821-11.453c0,0-13.305,2.738-12.4,10.855L96.565,202.056z"/>
		<path style="fill:#00B1DE;" d="M95.277,215.7c0,0-6.974,3.025-11.533-11.791c0,0,13.254,3.101,12.13,11.208L95.277,215.7z"/>
		<path style="fill:#00B1DE;" d="M96.566,214.736c0,0,6.889,3.209,11.847-11.477c0,0-13.333,2.743-12.427,10.878L96.566,214.736z"/>
		<path style="fill:#00B1DE;" d="M94.185,225.162c0,0-5.01,2.173-8.286-8.472c0,0,9.522,2.228,8.716,8.053L94.185,225.162z"/>
		<path style="fill:#00B1DE;" d="M95.153,224.781c0,0,4.6,2.942,9.531-7.043c0,0-9.757,0.683-9.888,6.562L95.153,224.781z"/>
		<path style="fill:#00B1DE;" d="M94.524,232.909c0,0,3.778,2.417,7.83-5.786c0,0-8.015,0.561-8.122,5.39L94.524,232.909z"/>
		<path style="fill:#00B1DE;" d="M94.37,232.909c0,0-3.778,2.417-7.829-5.786c0,0,8.015,0.561,8.122,5.39L94.37,232.909z"/>
		<path style="fill:#ABDFF9;" d="M73.628,222.061c0,0-4.979,5.488-14.984-5.84c0,0,13.021-2.572,15.28,5.083L73.628,222.061z"/>
		<path style="fill:#ABDFF9;" d="M74.178,221.283c0,0,7.409,0.081,5.912-14.957c0,0-10.742,7.794-6.669,14.657L74.178,221.283z"/>
		<path style="fill:#ABDFF9;" d="M77.624,232.936c0,0-5.568,6.136-16.754-6.529c0,0,14.557-2.875,17.082,5.681L77.624,232.936z"/>
		<path style="fill:#ABDFF9;" d="M78.237,232.066c0,0,8.283,0.09,6.608-16.722c0,0-12.008,8.714-7.454,16.387L78.237,232.066z"/>
		<path style="fill:#ABDFF9;" d="M81.137,245.528c0,0-6.034,5.676-16.184-7.833c0,0,14.737-1.715,16.579,7.014L81.137,245.528z"/>
		<path style="fill:#ABDFF9;" d="M81.817,244.709c0,0,8.251,0.746,7.91-16.146c0,0-12.66,7.738-8.729,15.746L81.817,244.709z"/>
		<g>
			<path style="fill:#2C295B;" d="M119.288,214.323c0,0,4.531,4.59,12.816-5.626c0,0-11.415-1.76-13.102,4.977L119.288,214.323z"/>
			<path style="fill:#2C295B;" d="M118.782,213.667c0,0-6.44,0.342-5.687-12.789c0,0,9.626,6.385,6.333,12.501L118.782,213.667z"/>
			<path style="fill:#2C295B;" d="M115.2,224.61c0,0,5.205,5.274,14.727-6.465c0,0-13.117-2.023-15.054,5.719L115.2,224.61z"/>
			<path style="fill:#2C295B;" d="M114.618,223.855c0,0-7.399,0.393-6.533-14.696c0,0,11.059,7.337,7.277,14.365L114.618,223.855z"
				/>
			<path style="fill:#2C295B;" d="M111.666,235.643c0,0,5.82,5.896,16.464-7.227c0,0-14.664-2.262-16.829,6.393L111.666,235.643z"/>
			<path style="fill:#2C295B;" d="M111.016,234.799c0,0-8.272,0.438-7.304-16.43c0,0,12.363,8.203,8.136,16.059L111.016,234.799z"/>
			<path style="fill:#2C295B;" d="M108.685,248.371c0,0,6.268,5.418,15.841-8.507c0,0-14.798-1.094-16.271,7.705L108.685,248.371z"
				/>
			<path style="fill:#2C295B;" d="M107.97,247.582c0,0-8.212,1.092-8.58-15.8c0,0,12.973,7.2,9.381,15.364L107.97,247.582z"/>
			<path style="fill:none;stroke:#2D419A;stroke-miterlimit:10;" d="M104.497,266.543c0,0,2.32-24.873,17.854-60.699"/>
			<path style="fill:#2C295B;" d="M121.577,206.144c0,0-4.211-4.883,6.638-12.323c0,0,0.837,11.52-6.014,12.66L121.577,206.144z"/>
		</g>
		<path style="fill:none;stroke:#2D419A;stroke-miterlimit:10;" d="M91.888,264.626c0,0,6.319-72.459,3.662-93.188"/>
		<path style="fill:#00B1DE;" d="M95.662,171.943c0,0,5.73-2.956-1.552-13.91c0,0-5.082,10.372,0.848,13.988L95.662,171.943z"/>
		<path style="fill:none;stroke:#2D419A;stroke-miterlimit:10;" d="M86.084,263.507c0,0-3.363-24.753-20.39-59.895"/>
	</g>
	<g>
		<path style="fill:#2D419A;" d="M433.459,311.45c0,0.587-0.476,1.063-1.063,1.063h-41.723c-0.587,0-1.063-0.476-1.063-1.063
			l-2.126-50.491c0-0.588,0.476-1.064,1.063-1.064h45.973c0.588,0,1.064,0.476,1.064,1.064L433.459,311.45z"/>
		<path style="fill:#ABDFF9;" d="M384.444,216.525c0,0-4.333,4.776-13.041-5.083c0,0,11.331-2.238,13.298,4.423L384.444,216.525z"/>
		<path style="fill:#ABDFF9;" d="M384.924,215.847c0,0,6.447,0.072,5.143-13.017c0,0-9.348,6.784-5.803,12.756L384.924,215.847z"/>
		<path style="fill:#00B1DE;" d="M410.971,184.955c0,0-5.916,2.565-9.786-10.006c0,0,11.247,2.631,10.293,9.511L410.971,184.955z"/>
		<path style="fill:#00B1DE;" d="M412.065,184.136c0,0,5.846,2.723,10.053-9.739c0,0-11.313,2.328-10.545,9.23L412.065,184.136z"/>
		<path style="fill:#00B1DE;" d="M410.813,195.549c0,0-6.293,2.729-10.408-10.641c0,0,11.96,2.798,10.946,10.115L410.813,195.549z"
			/>
		<path style="fill:#00B1DE;" d="M411.975,194.679c0,0,6.217,2.895,10.691-10.358c0,0-12.031,2.476-11.215,9.816L411.975,194.679z"
			/>
		<path style="fill:#00B1DE;" d="M410.611,207.588c0,0-6.957,3.018-11.508-11.767c0,0,13.226,3.094,12.104,11.184L410.611,207.588z"
			/>
		<path style="fill:#00B1DE;" d="M411.898,206.626c0,0,6.874,3.202,11.821-11.453c0,0-13.305,2.738-12.4,10.855L411.898,206.626z"/>
		<path style="fill:#00B1DE;" d="M410.61,220.269c0,0-6.974,3.025-11.533-11.791c0,0,13.254,3.101,12.13,11.208L410.61,220.269z"/>
		<path style="fill:#00B1DE;" d="M411.899,219.305c0,0,6.889,3.208,11.847-11.478c0,0-13.333,2.743-12.427,10.878L411.899,219.305z"
			/>
		<path style="fill:#00B1DE;" d="M409.518,229.731c0,0-5.01,2.173-8.286-8.472c0,0,9.522,2.227,8.716,8.053L409.518,229.731z"/>
		<path style="fill:#00B1DE;" d="M410.486,229.351c0,0,4.6,2.942,9.531-7.044c0,0-9.757,0.683-9.887,6.562L410.486,229.351z"/>
		<path style="fill:#00B1DE;" d="M409.857,237.478c0,0,3.778,2.417,7.83-5.786c0,0-8.014,0.561-8.122,5.39L409.857,237.478z"/>
		<path style="fill:#00B1DE;" d="M409.703,237.478c0,0-3.778,2.417-7.829-5.786c0,0,8.015,0.561,8.122,5.39L409.703,237.478z"/>
		<path style="fill:#ABDFF9;" d="M388.961,226.63c0,0-4.979,5.488-14.984-5.84c0,0,13.021-2.572,15.28,5.083L388.961,226.63z"/>
		<path style="fill:#ABDFF9;" d="M389.511,225.852c0,0,7.409,0.081,5.911-14.957c0,0-10.741,7.794-6.668,14.657L389.511,225.852z"/>
		<path style="fill:#ABDFF9;" d="M392.957,237.505c0,0-5.568,6.136-16.754-6.529c0,0,14.557-2.876,17.082,5.681L392.957,237.505z"/>
		<path style="fill:#ABDFF9;" d="M393.57,236.635c0,0,8.283,0.09,6.607-16.722c0,0-12.008,8.714-7.454,16.387L393.57,236.635z"/>
		<path style="fill:#ABDFF9;" d="M396.47,250.097c0,0-6.034,5.676-16.184-7.833c0,0,14.737-1.715,16.579,7.014L396.47,250.097z"/>
		<path style="fill:#ABDFF9;" d="M397.15,249.278c0,0,8.251,0.746,7.91-16.146c0,0-12.66,7.738-8.729,15.746L397.15,249.278z"/>
		<g>
			<path style="fill:#2C295B;" d="M434.621,218.893c0,0,4.531,4.59,12.816-5.626c0,0-11.415-1.76-13.102,4.977L434.621,218.893z"/>
			<path style="fill:#2C295B;" d="M434.115,218.236c0,0-6.439,0.342-5.687-12.789c0,0,9.626,6.385,6.333,12.501L434.115,218.236z"/>
			<path style="fill:#2C295B;" d="M430.533,229.179c0,0,5.205,5.274,14.727-6.465c0,0-13.117-2.022-15.054,5.719L430.533,229.179z"
				/>
			<path style="fill:#2C295B;" d="M429.951,228.424c0,0-7.399,0.393-6.533-14.696c0,0,11.059,7.337,7.277,14.365L429.951,228.424z"
				/>
			<path style="fill:#2C295B;" d="M426.999,240.212c0,0,5.82,5.896,16.464-7.227c0,0-14.664-2.262-16.829,6.393L426.999,240.212z"/>
			<path style="fill:#2C295B;" d="M426.349,239.369c0,0-8.272,0.438-7.304-16.43c0,0,12.363,8.203,8.136,16.059L426.349,239.369z"/>
			<path style="fill:#2C295B;" d="M424.018,252.94c0,0,6.268,5.418,15.841-8.507c0,0-14.798-1.094-16.271,7.705L424.018,252.94z"/>
			<path style="fill:#2C295B;" d="M423.303,252.151c0,0-8.212,1.092-8.58-15.8c0,0,12.973,7.2,9.381,15.364L423.303,252.151z"/>
			<path style="fill:none;stroke:#2D419A;stroke-miterlimit:10;" d="M419.83,271.112c0,0,2.32-24.873,17.854-60.699"/>
			<path style="fill:#2C295B;" d="M436.91,210.713c0,0-4.211-4.883,6.637-12.323c0,0,0.838,11.52-6.013,12.66L436.91,210.713z"/>
		</g>
		<path style="fill:none;stroke:#2D419A;stroke-miterlimit:10;" d="M407.221,269.196c0,0,6.319-72.459,3.662-93.188"/>
		<path style="fill:#00B1DE;" d="M410.995,176.512c0,0,5.73-2.956-1.552-13.91c0,0-5.082,10.372,0.848,13.988L410.995,176.512z"/>
		<path style="fill:none;stroke:#2D419A;stroke-miterlimit:10;" d="M401.417,268.076c0,0-3.363-24.753-20.39-59.895"/>
	</g>
	<g>
		<path style="fill:#FFFFFF;" d="M189.864,94.181c0,16.518-13.391,29.908-29.909,29.908s-29.909-13.391-29.909-29.908
			c0-16.519,13.391-29.909,29.909-29.909S189.864,77.662,189.864,94.181z"/>
		<g>
			<g>
				<rect x="172.571" y="79.72" style="fill:#2D419A;" width="5.062" height="32.231"/>
				<rect x="147.08" y="93.097" style="fill:#FFD145;" width="5.061" height="18.854"/>
				<rect x="164.075" y="84.075" style="fill:#00B1DE;" width="5.059" height="27.876"/>
				<rect x="155.577" y="88.048" style="fill:#F5825E;" width="5.06" height="23.903"/>
				<rect x="138.584" y="96.701" style="fill:#ABDFF9;" width="5.06" height="15.25"/>
			</g>
			<g>
				<g>
					<path style="fill:#2D419A;" d="M139.527,92.524c-0.238,0-0.47-0.127-0.593-0.35c-0.181-0.326-0.063-0.738,0.266-0.919
						l30.358-16.749c0.326-0.18,0.738-0.061,0.917,0.266c0.182,0.326,0.063,0.738-0.265,0.918l-30.358,16.75
						C139.749,92.497,139.637,92.524,139.527,92.524z"/>
				</g>
				<polygon style="fill:#2D419A;" points="169.303,79.494 171.38,74.073 165.607,73.482 				"/>
			</g>
		</g>
	</g>
	<g>
		<path style="fill:#FFFFFF;" d="M162.265,169.892c0,16.825-13.639,30.465-30.464,30.465s-30.464-13.64-30.464-30.465
			s13.639-30.464,30.464-30.464S162.265,153.066,162.265,169.892z"/>
		<g>
			<rect x="118.119" y="176.433" style="fill:#F5825E;" width="4.329" height="12.363"/>
			<rect x="116.977" y="173.731" style="fill:#00B1DE;" width="6.614" height="3.915"/>
			<path style="fill:#2C295B;" d="M145.999,158.8v15.139c4.068-0.131,7.326-3.469,7.326-7.569S150.067,158.931,145.999,158.8z"/>
			<path style="fill:#2C295B;" d="M115.766,160.742v11.341c-3.049-0.098-5.489-2.598-5.489-5.67
				C110.276,163.341,112.717,160.841,115.766,160.742z"/>
			<path style="fill:#00B1DE;" d="M143.165,152.571c-12.768,5.791-19.404,5.419-19.404,5.419v16.514c0,0,10.527-0.249,19.404,5.522
				V152.571z"/>
			<rect x="113.612" y="157.8" style="fill:#2C295B;" width="11.611" height="17.002"/>
			<rect x="142.114" y="150.987" style="fill:#F5825E;" width="5.397" height="29.727"/>
		</g>
	</g>
	<g>
		<path style="fill:#FFFFFF;" d="M406.2,174.689c0,16.824-13.639,30.464-30.464,30.464c-16.825,0-30.464-13.64-30.464-30.464
			c0-16.825,13.639-30.465,30.464-30.465C392.561,144.224,406.2,157.863,406.2,174.689z"/>
		<g>
			<path style="fill:#ABDFF9;" d="M375.737,174.677c0,0.396-14.17-12.891-14.17-12.891c3.504-3.85,8.555-6.266,14.17-6.266V174.677z
				"/>
			<path style="fill:#F5825E;" d="M394.894,174.677c0,0-8.576,0-19.156,0V155.52C386.317,155.52,394.894,164.097,394.894,174.677z"
				/>
			<path style="fill:#00B1DE;" d="M356.581,174.695c0,0,8.576,0,19.156,0v19.156C365.157,193.852,356.581,185.274,356.581,174.695z"
				/>
			<path style="fill:#2D419A;" d="M375.737,174.677h-19.156c0-4.965,1.889-9.488,4.986-12.891L375.737,174.677z"/>
			<g>
				<path style="fill:#FFD145;" d="M375.737,174.7c0-0.396,14.17,12.891,14.17,12.891c-3.504,3.85-8.555,6.265-14.17,6.265V174.7z"
					/>
				<path style="fill:#0086CB;" d="M375.737,174.7h19.156c0,4.964-1.89,9.486-4.986,12.891L375.737,174.7z"/>
			</g>
		</g>
	</g>
	<g>
		<g>
			<path style="fill:#FFFFFF;" d="M281.961,69.179c0,18.417-14.929,33.345-33.347,33.345c-18.416,0-33.346-14.928-33.346-33.345
				c0-18.416,14.93-33.345,33.346-33.345C267.032,35.833,281.961,50.763,281.961,69.179z"/>
		</g>
		<path style="fill:#00B1DE;" d="M270.082,63.171h-7.58l5.189-5.525l-8.757-8.227l-4.314,4.591v-6.3h-12.016v7.579l-5.523-5.189
			l-8.227,8.756l4.591,4.314h-6.3v12.015h7.579l-5.19,5.526l8.758,8.227l4.313-4.591v6.3h12.016v-7.579l5.525,5.189l8.227-8.756
			l-4.591-4.315h6.3V63.171z M248.614,77.83c-4.778,0-8.651-3.874-8.651-8.651c0-4.778,3.873-8.651,8.651-8.651
			c4.777,0,8.651,3.874,8.651,8.651C257.266,73.956,253.392,77.83,248.614,77.83z"/>
	</g>
	<g>
		<g>
			<path style="fill:#FFFFFF;" d="M370.715,94.181c0,16.518-13.392,29.908-29.91,29.908c-16.518,0-29.908-13.391-29.908-29.908
				c0-16.519,13.391-29.909,29.908-29.909C357.323,64.271,370.715,77.662,370.715,94.181z"/>
		</g>
		<g>
			<g>
				<g>
					<polygon style="fill:#2C295B;" points="348.144,111.773 321.133,94.439 348.147,77.197 349.796,79.784 326.823,94.446 
						349.8,109.192 					"/>
				</g>
			</g>
			<path style="fill:#F5825E;" d="M342.325,77.877c0,3.671,2.977,6.647,6.647,6.647c3.672,0,6.646-2.977,6.646-6.647
				s-2.975-6.646-6.646-6.646C345.302,71.23,342.325,74.206,342.325,77.877z"/>
			<path style="fill:#F5825E;" d="M317.571,93.874c0,4.292,3.48,7.771,7.772,7.771s7.771-3.479,7.771-7.771
				c0-4.293-3.479-7.772-7.771-7.772S317.571,89.581,317.571,93.874z"/>
			<circle style="fill:#F5825E;" cx="348.972" cy="110.483" r="6.647"/>
		</g>
	</g>
	<g>
		<g>
			<path style="fill:#FFD145;" d="M332.873,238.077c-0.279,0.905-0.6,1.792-0.975,2.658c-1.5,3.469-3.548,6.485-6.141,9.047
				c-2.595,2.564-5.594,4.579-9,6.046c-3.408,1.47-7.016,2.204-10.828,2.204s-7.422-0.733-10.828-2.204
				c-3.406-1.467-6.408-3.483-9-6.046c-0.707-0.698-1.355-1.445-1.978-2.212c-2.16,1.701-4.527,3.121-6.67,4.854
				c-0.139,0.112-0.275,0.226-0.414,0.338c0.838,1.041,1.73,2.035,2.688,2.974c3.344,3.281,7.266,5.859,11.766,7.734
				s9.313,2.813,14.438,2.813c5.124,0,9.938-0.938,14.438-2.813s8.422-4.453,11.766-7.734c3.343-3.282,5.984-7.172,7.922-11.672
				c0.488-1.137,0.902-2.302,1.266-3.488C338.514,239.7,335.738,238.706,332.873,238.077z"/>
			<path style="fill:#ABDFF9;" d="M340.008,215.142c-1.969-4.468-4.625-8.375-7.969-11.719c-3.345-3.343-7.266-5.984-11.766-7.922
				c-4.5-1.937-9.28-2.906-14.344-2.906c-5.063,0-9.844,0.97-14.344,2.906c-0.064,0.027-0.125,0.058-0.189,0.086l3.467,7.417
				c3.071-1.139,7.507-2.16,11.065-2.16c4.125,0,7.922,0.766,11.391,2.297c3.469,1.532,6.453,3.594,8.953,6.187
				c2.498,2.594,4.438,5.625,5.813,9.094c1.374,3.469,2.063,7.141,2.063,11.016c0,2.588-0.948,7.172-1.558,9.519l8.422,2.584
				c1.291-3.786,1.948-7.817,1.948-12.103C342.961,224.376,341.977,219.611,340.008,215.142z"/>
			<path style="fill:#2C295B;" d="M278.299,254.24c2.264-1.855,4.586-3.634,6.98-5.312c-2.207-2.372-3.98-5.101-5.318-8.193
				c-1.5-3.468-2.25-7.233-2.25-11.296c0-3.875,0.688-7.547,2.063-11.016c1.374-3.469,3.313-6.5,5.813-9.094
				c2.5-2.593,5.484-4.654,8.953-6.187c0.264-0.117,0.531-0.22,0.799-0.327c-1.166-2.47-2.208-4.993-3.203-7.534
				c-0.183,0.074-0.367,0.141-0.549,0.22c-4.5,1.938-8.422,4.579-11.766,7.922c-3.344,3.344-5.999,7.251-7.968,11.719
				c-1.969,4.469-2.954,9.234-2.954,14.296c0,5.25,0.969,10.125,2.907,14.625C273.457,247.9,275.625,251.29,278.299,254.24z"/>
		</g>
		<g>
			<polygon style="fill:#FFD145;" points="233.76,242.899 224.947,242.899 224.947,263.395 262.916,263.395 262.916,255.333 
				233.76,255.333 			"/>
			<polygon style="fill:#ABDFF9;" points="233.76,212.458 224.947,212.458 224.947,243.64 233.76,243.64 233.76,228.614 
				262.072,228.614 262.072,220.552 233.76,220.552 			"/>
			<polygon style="fill:#2C295B;" points="224.947,192.708 224.947,213.214 233.76,213.214 233.76,200.771 262.916,200.771 
				262.916,192.708 			"/>
		</g>
		<g>
			<path style="fill:#FFD145;" d="M197.786,253.937c-0.008,0.003-0.015,0.008-0.021,0.011c-1.594,0.751-3.328,1.126-5.204,1.126
				c-1.874,0-3.655-0.329-5.343-0.984c-1.689-0.656-3.156-1.578-4.407-2.765c-1.251-1.188-2.219-2.609-2.906-4.266
				c-0.688-1.656-1.03-3.452-1.03-5.391l-8.907,1.875c0.375,2.812,1.188,5.438,2.439,7.875c1.249,2.437,2.827,4.532,4.734,6.281
				c1.905,1.75,4.108,3.125,6.608,4.125c2.499,0.999,5.188,1.5,8.063,1.5c3.053,0,5.902-0.509,8.555-1.511
				C199.846,259.079,198.676,256.554,197.786,253.937z"/>
			<path style="fill:#2C295B;" d="M177.796,219.308c1.405,1.407,3.046,2.626,4.921,3.656c1.875,1.032,3.813,1.985,5.813,2.86
				l4.875,2.062c1.125,0.469,2.238,0.997,3.346,1.552c1.375-2.556,2.947-5.003,4.316-7.56c-1.342-0.658-2.733-1.283-4.192-1.867
				l-5.063-1.969c-1.124-0.436-2.266-0.952-3.422-1.546c-1.157-0.594-2.203-1.297-3.141-2.11c-0.937-0.811-1.719-1.749-2.344-2.811
				c-0.625-1.063-0.938-2.281-0.938-3.656c0-1.562,0.344-2.954,1.031-4.172c0.688-1.218,1.594-2.265,2.719-3.14
				c1.126-0.875,2.391-1.548,3.797-2.016c1.406-0.469,2.828-0.704,4.266-0.704c2.688,0,4.922,0.563,6.703,1.688
				c1.782,1.126,3.328,2.782,4.641,4.969l7.031-4.219c-1.938-3.436-4.469-6.078-7.594-7.922c-3.125-1.843-6.656-2.765-10.594-2.765
				c-2.688,0-5.281,0.422-7.781,1.265c-2.5,0.845-4.719,2.048-6.655,3.609c-1.939,1.564-3.485,3.469-4.642,5.719
				c-1.156,2.25-1.734,4.813-1.734,7.688c0,2.436,0.422,4.593,1.267,6.468C175.265,216.261,176.39,217.902,177.796,219.308z"/>
			<path style="fill:#ABDFF9;" d="M213.092,233.558c-0.876-2.218-2.094-4.171-3.656-5.859c-1.563-1.687-3.421-3.141-5.578-4.36
				c-1.785-1.01-3.695-1.938-5.716-2.797c-1.417,2.527-2.849,5.047-4.071,7.641c1.273,0.552,2.537,1.148,3.788,1.813
				c1.468,0.782,2.78,1.687,3.937,2.719c1.156,1.03,2.078,2.25,2.766,3.656c0.688,1.406,1.031,3.046,1.031,4.921
				c0,1.875-0.327,3.642-0.984,5.296c-0.656,1.657-1.563,3.11-2.719,4.36c-1.157,1.251-2.531,2.249-4.124,2.999
				c-0.19,0.09-0.39,0.156-0.583,0.235c0.447,2.729,1.047,5.433,1.783,8.107c0.592-0.181,1.178-0.379,1.752-0.607
				c2.75-1.093,5.141-2.609,7.172-4.547c2.03-1.937,3.624-4.266,4.781-6.985c1.156-2.719,1.734-5.672,1.734-8.859
				C214.404,238.356,213.967,235.777,213.092,233.558z"/>
		</g>
	</g>
	<g>
		<rect x="302.947" y="256.853" style="fill:#ABDFF9;" width="6.375" height="19.806"/>
		<path style="fill:#F5825E;" d="M335.945,230.468c0,16.295-13.21,29.505-29.506,29.505c-16.295,0-29.505-13.21-29.505-29.505
			c0-16.295,13.21-29.504,29.505-29.504C322.735,200.964,335.945,214.173,335.945,230.468z"/>
		<path style="fill:#F5825E;" d="M300.031,266.755v45.377c0,3.147,2.551,5.697,5.697,5.697h0.813c3.149,0,5.698-2.55,5.698-5.697
			v-45.377H300.031z"/>
		<path style="fill:#FFFFFF;" d="M329.434,230.468c0,12.699-10.293,22.993-22.994,22.993c-12.699,0-22.992-10.293-22.992-22.993
			c0-12.699,10.293-22.993,22.992-22.993C319.141,207.475,329.434,217.769,329.434,230.468z"/>
	</g>
</g>
</svg>
